<?xml version="1.0" encoding="UTF-8" standalone="no"?>
<svg
   viewBox="0 0 3806.25 1080"
   height="1080"
   width="3806.25"
   xml:space="preserve"
   id="svg2"
   version="1.1"
   sodipodi:docname="untitled-1.svg"
   inkscape:version="1.1 (c68e22c387, 2021-05-23)"
   xmlns:inkscape="http://www.inkscape.org/namespaces/inkscape"
   xmlns:sodipodi="http://sodipodi.sourceforge.net/DTD/sodipodi-0.dtd"
   xmlns="http://www.w3.org/2000/svg"
   xmlns:svg="http://www.w3.org/2000/svg"
   xmlns:rdf="http://www.w3.org/1999/02/22-rdf-syntax-ns#"
   xmlns:cc="http://creativecommons.org/ns#"
   xmlns:dc="http://purl.org/dc/elements/1.1/"><sodipodi:namedview
     id="namedview81"
     pagecolor="#ffffff"
     bordercolor="#666666"
     borderopacity="1.0"
     inkscape:pageshadow="2"
     inkscape:pageopacity="0.0"
     inkscape:pagecheckerboard="0"
     showgrid="false"
     fit-margin-top="0"
     fit-margin-left="0"
     fit-margin-right="0"
     fit-margin-bottom="0"
     inkscape:zoom="0.28410989"
     inkscape:cx="1036.5707"
     inkscape:cy="1061.2091"
     inkscape:window-width="1920"
     inkscape:window-height="1017"
     inkscape:window-x="-8"
     inkscape:window-y="-8"
     inkscape:window-maximized="1"
     inkscape:current-layer="svg2" /><metadata
     id="metadata8"><rdf:RDF><cc:Work
         rdf:about=""><dc:format>image/svg+xml</dc:format><dc:type
           rdf:resource="http://purl.org/dc/dcmitype/StillImage" /></cc:Work></rdf:RDF></metadata><defs
     id="defs6"><linearGradient
       id="linearGradient66"
       spreadMethod="pad"
       gradientTransform="matrix(755.295,0,0,-755.295,1334.82,1470.54)"
       gradientUnits="userSpaceOnUse"
       y2="0"
       x2="1"
       y1="0"
       x1="0"><stop
         id="stop62"
         offset="0"
         style="stop-opacity:1;stop-color:#ffffff" /><stop
         id="stop64"
         offset="1"
         style="stop-opacity:1;stop-color:#918f90" /></linearGradient><linearGradient
       id="linearGradient74"
       spreadMethod="pad"
       gradientTransform="matrix(365.552,22.23,22.23,-365.552,1808.06,1929.53)"
       gradientUnits="userSpaceOnUse"
       y2="0"
       x2="1"
       y1="0"
       x1="0"><stop
         id="stop70"
         offset="0"
         style="stop-opacity:1;stop-color:#ffffff" /><stop
         id="stop72"
         offset="1"
         style="stop-opacity:1;stop-color:#918f90" /></linearGradient><linearGradient
       id="linearGradient82"
       spreadMethod="pad"
       gradientTransform="matrix(-378.168,245.773,245.773,378.168,1828.82,2353.87)"
       gradientUnits="userSpaceOnUse"
       y2="0"
       x2="1"
       y1="0"
       x1="0"><stop
         id="stop78"
         offset="0"
         style="stop-opacity:1;stop-color:#ffffff" /><stop
         id="stop80"
         offset="1"
         style="stop-opacity:1;stop-color:#918f90" /></linearGradient><linearGradient
       id="linearGradient94"
       spreadMethod="pad"
       gradientTransform="matrix(913.97,0,0,-913.97,880.796,2167.78)"
       gradientUnits="userSpaceOnUse"
       y2="0"
       x2="1"
       y1="0"
       x1="0"><stop
         id="stop86"
         offset="0"
         style="stop-opacity:1;stop-color:#ffffff" /><stop
         id="stop88"
         offset="0.27422392"
         style="stop-opacity:1;stop-color:#918f90" /><stop
         id="stop90"
         offset="0.686813"
         style="stop-opacity:1;stop-color:#918f90" /><stop
         id="stop92"
         offset="1"
         style="stop-opacity:1;stop-color:#918f90" /></linearGradient><clipPath
       id="clipPath104"
       clipPathUnits="userSpaceOnUse"><path
         id="path102"
         d="m 2170.01,1978.13 c 26.93,-116.4 -2.89,-332.07 -53.63,-441.61 -19.08,-29.63 -86.12,-75.36 -236.07,-75.36 -431.87,0 -1213.747,345.73 -1213.747,625.43 24.437,105.68 127.386,274.29 262.992,372.76 -28.973,-25.89 -36.121,-53.2 -36.121,-74.73 0,-216.53 662.656,-535.55 1060.966,-535.55 95.94,0 215.61,17.96 215.61,129.06 z" /></clipPath><linearGradient
       id="linearGradient112"
       spreadMethod="pad"
       gradientTransform="matrix(1513.57,0,0,-1513.57,666.567,1960.25)"
       gradientUnits="userSpaceOnUse"
       y2="0"
       x2="1"
       y1="0"
       x1="0"><stop
         id="stop106"
         offset="0"
         style="stop-opacity:1;stop-color:#ec008c" /><stop
         id="stop108"
         offset="0.609375"
         style="stop-opacity:1;stop-color:#2e3192" /><stop
         id="stop110"
         offset="1"
         style="stop-opacity:1;stop-color:#00adef" /></linearGradient><clipPath
       id="clipPath122"
       clipPathUnits="userSpaceOnUse"><path
         id="path120"
         d="m 1767.34,2530.19 c 196,-101.03 324.86,-286.22 376.06,-447.66 9.9,-96.55 -75.22,-130.73 -194.72,-130.73 -369.09,0 -971.203,298.43 -971.203,492.57 0.359,21.75 10.957,43.76 32.223,66.76 186.82,119.56 437.46,127.25 538.98,88.13 -48.91,13.7 -100.52,1.67 -100.52,-34.47 0,-52.34 187.46,-171.19 344.66,-171.19 14.53,0 70.82,-0.89 70.82,37.39 0,31.07 -48.28,71.54 -96.3,99.2 z" /></clipPath><linearGradient
       id="linearGradient134"
       spreadMethod="pad"
       gradientTransform="matrix(1166.72,0,0,-1166.72,977.476,2286.08)"
       gradientUnits="userSpaceOnUse"
       y2="0"
       x2="1"
       y1="0"
       x1="0"><stop
         id="stop124"
         offset="0"
         style="stop-opacity:1;stop-color:#00adef" /><stop
         id="stop126"
         offset="0.246094"
         style="stop-opacity:1;stop-color:#00adef" /><stop
         id="stop128"
         offset="0.597656"
         style="stop-opacity:1;stop-color:#00a650" /><stop
         id="stop130"
         offset="0.910156"
         style="stop-opacity:1;stop-color:#fff200" /><stop
         id="stop132"
         offset="1"
         style="stop-opacity:1;stop-color:#fff200" /></linearGradient><clipPath
       id="clipPath144"
       clipPathUnits="userSpaceOnUse"><path
         id="path142"
         d="m 639.633,1991.43 c -18.66,-166.78 304.664,-377 651.647,-505.9 321.45,-119.81 663.66,-170 772.64,-51.06 -211.78,-322.33 -545.19,-416.65 -837.59,-345.99 -363.053,87.39 -662.615,428.53 -586.697,902.95 z" /></clipPath><linearGradient
       id="linearGradient156"
       spreadMethod="pad"
       gradientTransform="matrix(1436.14,0,0,-1436.14,627.778,1528.9)"
       gradientUnits="userSpaceOnUse"
       y2="0"
       x2="1"
       y1="0"
       x1="0"><stop
         id="stop146"
         offset="0"
         style="stop-opacity:1;stop-color:#fff200" /><stop
         id="stop148"
         offset="0.117188"
         style="stop-opacity:1;stop-color:#fff200" /><stop
         id="stop150"
         offset="0.402344"
         style="stop-opacity:1;stop-color:#ed1c24" /><stop
         id="stop152"
         offset="0.867188"
         style="stop-opacity:1;stop-color:#ec008c" /><stop
         id="stop154"
         offset="1"
         style="stop-opacity:1;stop-color:#ec008c" /></linearGradient></defs><g
     transform="matrix(0.6544532,0,0,-0.6544532,-410.85008,1714.9109)"
     id="g12"><path
       id="path16"
       style="fill:#56555a;fill-opacity:1;fill-rule:nonzero;stroke:none"
       d="m 6393.07,1616.67 h 5.58 c 6.36,0 11.71,2.3 11.71,8.28 0,4.15 -3.11,8.37 -11.71,8.37 -2.47,0 -4.19,-0.16 -5.58,-0.4 z m 0,-26.69 h -7.65 v 48.11 c 4.02,0.56 7.85,1.2 13.62,1.2 7.25,0 12.03,-1.59 14.98,-3.67 2.83,-2.07 4.38,-5.33 4.38,-10.03 0,-6.22 -4.23,-10.04 -9.44,-11.63 v -0.4 c 4.27,-0.72 7.13,-4.54 8.09,-11.63 1.2,-7.57 2.31,-10.36 3.1,-11.95 h -8.05 c -1.19,1.59 -2.38,6.05 -3.3,12.26 -1.16,6.13 -4.19,8.45 -10.32,8.45 h -5.41 z m 8.05,61.58 c -18.97,0 -34.5,-16.33 -34.5,-36.49 0,-20.47 15.53,-36.57 34.73,-36.57 19.16,-0.23 34.49,16.1 34.49,36.41 0,20.32 -15.33,36.65 -34.49,36.65 z m 0.23,6.69 c 23.5,0 42.35,-19.12 42.35,-43.18 0,-24.29 -18.85,-43.34 -42.58,-43.34 -23.59,0 -42.71,19.05 -42.71,43.34 0,24.06 19.12,43.18 42.71,43.18 h 0.23" /><path
       id="path18"
       style="fill:#56555a;fill-opacity:1;fill-rule:nonzero;stroke:none"
       d="m 3318.63,1125.69 c 0.56,-3.19 0.97,-5.82 1.16,-7.66 0.14,-1.98 0.06,-3.66 -0.22,-5.09 -0.38,-1.6 -0.94,-2.71 -1.87,-3.59 -7.73,-10.83 -15.56,-19.51 -23.47,-26.12 -7.77,-6.38 -14.97,-11.4 -21.47,-14.9 -7.73,-4.14 -15.11,-6.94 -22.18,-8.37 -9.09,-1.52 -15.34,-0.79 -19.04,1.75 -3.67,2.71 -6.18,6.06 -7.39,10.12 -1.27,4.7 -1.27,10.2 0,16.33 0.62,3.51 2.05,8.29 4.4,14.1 2.33,5.98 4.66,11.55 7.13,17.29 2.85,6.45 5.81,13.14 9.28,20.24 4.64,10.27 9.2,20.63 13.64,30.91 4.53,10.35 8.67,19.6 12.33,27.8 3.94,9.72 7.97,18.8 12.03,27.33 6.49,14.73 12.57,28.2 18.08,40.62 2.37,5.26 4.94,10.52 7.37,15.86 2.51,5.33 4.78,10.27 7.03,14.74 2.09,4.54 4.01,8.6 5.72,11.95 1.7,3.42 3.03,5.89 3.98,7.72 0.62,0.8 1.12,1.67 1.62,2.4 0.43,0.79 0.81,1.42 1.09,1.99 l 1.02,1.83 c 0.56,0.8 1.49,1.67 2.75,2.54 1.79,1.21 4.76,2.88 8.82,4.95 4.28,1.43 8.42,2.54 12.47,3.35 4.06,0.63 8.34,0.86 12.98,0.55 0.28,0 0.74,-0.16 1.46,-0.4 0.83,-0.88 0.98,-1.91 0.3,-3.1 -0.52,-1.52 -1.36,-3.03 -2.23,-4.79 -0.64,-1.59 -1.4,-3.42 -2.33,-5.58 -0.92,-2.22 -2.04,-4.61 -3.27,-7.24 -6.79,-15.62 -13.88,-31.47 -21.27,-47.73 -6.16,-14.09 -13.05,-29.39 -20.62,-45.8 -7.52,-16.49 -14.85,-32.66 -21.94,-48.51 -4.69,-9.41 -8.89,-18.72 -12.55,-27.89 -3.43,-7.65 -6.81,-15.53 -10.24,-23.74 -3.34,-8.28 -6.23,-15.05 -8.72,-20.39 -1.59,-3.19 -2.19,-6.06 -1.87,-8.36 0,-2 0.77,-3.75 2.29,-5.02 1.51,-1.36 4.54,-1.44 8.74,-0.25 3.11,0.56 6.71,2.47 10.74,5.66 3.32,2.79 7.78,6.77 13.24,12.27 5.31,5.41 11.61,12.98 18.68,22.71 0.32,0.23 0.64,0.39 0.96,0.39 0.58,0 1.06,-0.31 1.37,-0.87" /><path
       id="path20"
       style="fill:#56555a;fill-opacity:1;fill-rule:nonzero;stroke:none"
       d="m 3417.6,1157 c 3.16,6.77 6.13,13.3 8.86,19.68 2.72,6.28 5.23,11.94 7.43,16.88 2.45,5.65 4.82,11.15 6.95,16.42 0.34,0.39 0.5,0.87 0.5,1.67 v 0.47 c -0.98,1.83 -2.51,2.95 -4.43,3.34 -2.07,0.48 -3.92,0.57 -5.79,0.25 -2.55,-0.25 -4.98,-0.96 -7.39,-1.76 -8.05,-4.45 -15.43,-10.12 -22.06,-16.96 -6.64,-6.94 -12.55,-14.26 -17.83,-22.07 -5.24,-7.89 -9.86,-15.62 -13.88,-23.42 -4.07,-7.81 -7.24,-14.5 -9.75,-20.08 -1.25,-2.31 -2.21,-4.46 -2.76,-6.45 -0.6,-1.83 -1.23,-3.51 -1.87,-4.94 -0.56,-1.52 -1.04,-3.03 -1.36,-4.55 -0.99,-4.37 -1.59,-8.2 -1.93,-11.38 -0.28,-2.95 -0.14,-5.74 0.48,-8.13 0.67,-2.62 2.25,-4.14 4.68,-4.78 1.51,-0.48 3.56,-0.39 5.93,0.48 1.92,0.63 4.27,1.83 7.25,3.75 2.89,1.99 6.4,5.09 10.46,9.47 4.02,4.46 8.16,9.32 12.51,14.66 3.66,4.7 7.68,10.2 12.01,16.57 4.34,6.3 8.36,13.22 11.99,20.88 z m -8.77,-96.16 c -7.64,0.55 -12.53,3.27 -14.62,7.96 -1.95,4.7 -2.64,9.64 -2.01,14.98 0.58,6.14 2.61,13.23 5.94,21.11 0.61,0.88 0.89,1.51 0.73,1.76 -0.13,0.32 -0.35,0.32 -0.73,0 -0.3,-0.25 -0.7,-0.56 -1.34,-0.88 -8.06,-9.32 -15.33,-16.97 -21.97,-22.71 -6.65,-5.73 -12.62,-9.96 -17.86,-12.99 -5.88,-3.49 -11.23,-5.88 -16.19,-7.09 -4.4,-1.11 -8.07,-1.34 -11.16,-0.63 -3.08,0.8 -5.53,1.84 -7.38,3.35 -2.18,1.43 -3.92,3.34 -5.1,5.73 -3.73,5.58 -5.72,11.8 -6.1,18.97 -0.2,7.09 0.26,13.7 1.47,19.83 1.26,7.33 3.23,14.58 6.04,21.67 0.9,1.99 2.01,4.38 3.21,7.01 0.87,2.39 2.15,5.18 3.7,8.2 1.54,3.03 3.41,6.38 5.58,9.89 3.98,7.09 9.24,14.89 15.75,23.42 6.44,8.52 14.16,16.4 22.95,23.58 8.78,7.25 18.58,13.07 29.43,17.69 10.78,4.46 22.51,6.53 35.16,5.88 2.15,-0.23 4.38,-0.71 6.51,-1.27 1.55,-0.63 3.14,-1.35 4.78,-2.23 1.75,-0.87 2.91,-2.07 3.53,-3.51 l 0.97,-0.87 c 0.3,-0.63 0.71,-0.63 1.34,0 0.67,1.19 1.55,2.31 2.78,3.51 2.49,2.38 5.52,3.98 9.26,4.93 1.86,0.24 4,0.57 6.51,0.8 4.05,0.25 9.05,0.25 15.26,0 0.68,0 1.12,-0.15 1.38,-0.48 0.61,-0.63 0.61,-1.27 0,-2.15 -7.11,-15.69 -14.03,-30.9 -20.82,-45.88 -5.87,-12.91 -11.91,-26.29 -18.02,-40.16 -6.23,-13.86 -11.47,-25.89 -15.73,-36.16 -1.36,-3.27 -2.09,-6.21 -2.42,-8.85 -0.31,-2.38 -0.02,-4.54 0.74,-6.45 0.76,-1.83 2.69,-2.71 5.82,-2.39 3.04,-0.32 6.73,0.88 11.07,3.51 3.69,2.38 8.47,6.36 14.36,12.03 5.85,5.49 12.83,14.01 20.89,25.41 l 0.9,0.96 c 0.64,0 1.27,-0.4 1.83,-1.28 0.34,-1.75 0.46,-3.82 0.46,-6.21 -0.28,-2.07 -0.77,-4.31 -1.3,-6.86 -0.69,-2.46 -2.21,-5.33 -4.74,-8.6 -9.51,-12.35 -18.58,-21.67 -27.14,-28.04 -8.38,-6.3 -15.91,-10.6 -22.37,-12.91 -7.76,-3.03 -14.83,-4.22 -21.35,-3.58" /><path
       id="path22"
       style="fill:#56555a;fill-opacity:1;fill-rule:nonzero;stroke:none"
       d="m 3831.14,1127.04 c 1.51,-2.07 2.31,-4.14 2.51,-6.21 0.12,-2.07 -0.16,-3.83 -0.68,-5.35 -0.63,-2.07 -1.39,-3.97 -2.27,-5.65 -8.04,-11.23 -16.13,-20.16 -24.13,-26.92 -8.05,-6.78 -15.62,-11.79 -22.67,-14.98 -8.05,-4.15 -15.98,-6.85 -23.66,-7.97 -8.64,-1.19 -14.78,-0.16 -18.36,3.02 -3.52,3.28 -5.59,6.94 -6.18,11.08 -0.96,5.02 -0.44,10.76 1.39,17.13 1.52,5.65 4.11,12.51 7.9,20.55 3.66,8.13 7.24,16.02 10.5,23.67 4.07,8.83 8.62,18.08 13.55,27.8 5.26,9.96 8.85,17.84 10.88,23.34 1.99,5.57 2.99,9.56 2.99,11.95 0,2.86 -0.73,4.54 -2.32,4.78 -2.47,1.2 -5.61,0.72 -9.48,-1.44 -3.86,-2.23 -7.88,-5.33 -12.06,-9.24 -4.19,-4.06 -8.41,-8.52 -12.8,-13.54 -4.21,-4.93 -8.08,-9.64 -11.51,-14.1 -1.86,-2.31 -3.54,-4.54 -5.14,-6.61 -1.51,-2.07 -2.74,-3.82 -3.66,-5.26 -1.23,-1.83 -2.39,-3.43 -3.18,-4.94 -3.83,-5.9 -7.49,-12.27 -11.28,-19.36 -3.62,-7.01 -7.01,-13.7 -10.08,-19.84 -3.43,-7.4 -6.69,-14.66 -9.72,-21.98 -0.71,-2.47 -1.59,-4.79 -2.87,-7.17 -0.9,-2.07 -1.86,-3.98 -2.94,-5.98 -1.08,-1.99 -2.39,-3.58 -3.9,-5.02 -3.11,-3.27 -6.69,-5.57 -10.68,-7.09 -4.02,-1.51 -7.93,-2.47 -11.63,-3.1 -4.26,-0.8 -8.96,-1.11 -13.86,-0.8 -2.51,0.24 -3.67,1.11 -3.67,2.55 0,0.55 0.33,1.35 0.88,2.31 3.38,6.69 6.69,13.46 9.95,20.39 3.2,6.94 6.15,13.22 8.57,18.89 2.75,6.37 5.46,12.59 7.89,18.4 2.51,4.69 5.14,10.19 7.85,16.33 2.78,6.22 5.45,12.19 7.92,18.16 3.07,6.7 5.94,13.62 8.81,20.71 3.1,6.78 5.02,11.96 5.77,15.7 0.76,3.59 1.15,6.37 1.15,8.21 -0.31,1.9 -0.95,3.34 -1.86,3.82 -3.39,1.51 -8.37,-0.24 -14.83,-5.41 -6.45,-5.19 -12.94,-11.32 -19.39,-18.41 -5.9,-6.38 -10.88,-12.27 -14.9,-17.53 -2.11,-3.03 -4.14,-5.73 -6.01,-8.44 -4.38,-5.9 -8.57,-12.66 -12.71,-20.32 -4.22,-7.65 -8.01,-14.89 -11.31,-21.66 -3.75,-7.89 -7.49,-16.02 -11.16,-24.22 -0.95,-2.31 -1.83,-4.71 -2.79,-7.09 -0.96,-1.99 -1.82,-4.07 -2.78,-6.14 -0.88,-1.99 -2.11,-3.82 -3.75,-5.26 -3.03,-3.27 -6.61,-5.57 -10.64,-7.09 -4.02,-1.51 -7.84,-2.47 -11.59,-3.1 -4.29,-0.8 -8.91,-1.04 -13.86,-0.4 -2.47,0.23 -3.75,1.19 -3.75,2.63 0,0.55 0.17,1.35 0.57,2.14 3.34,6.78 6.69,13.71 9.87,20.56 3.28,6.93 6.1,13.22 8.61,18.72 2.79,6.53 5.17,12.67 7.41,18.57 6.13,14.73 12.03,28.28 17.65,40.62 2.11,5.19 4.46,10.6 6.89,15.86 2.5,5.25 4.78,10.2 6.92,14.58 2.24,4.38 4.11,8.28 5.79,11.71 1.63,3.35 3.1,5.9 3.93,7.65 0.65,0.87 1.24,1.67 1.68,2.47 0.44,0.8 0.79,1.43 1.11,1.99 l 0.96,1.75 2.78,2.71 c 0.96,0.56 2.08,1.27 3.51,2.38 1.36,0.96 2.99,1.84 4.86,2.4 4.26,1.51 8.36,2.55 12.27,3.35 3.83,0.71 8.09,0.88 12.75,0.63 0.56,0 1.12,-0.15 1.39,-0.48 0.61,-0.63 0.68,-1.59 0.36,-3.1 -0.52,-1.44 -1.28,-3.03 -2.31,-4.79 -0.56,-1.5 -1.43,-3.26 -2.51,-5.25 -1.08,-2.15 -2.31,-4.46 -3.51,-7.09 -0.91,-2.15 -2.03,-4.46 -3.18,-7.09 -1.23,-2.32 -2.55,-5.02 -3.95,-8.13 -1.38,-3.1 -3.06,-6.76 -4.89,-10.75 v -1.83 c 0,-0.96 0.75,-0.56 2.34,0.87 6.78,7.96 14.07,15.3 21.79,21.99 6.42,5.97 13.83,11.32 21.95,16.41 8.21,5.02 16.81,8.13 25.78,9.64 4.9,0.64 9.12,0.16 12.47,-1.2 3.18,-1.59 5.48,-3.97 7.16,-7.32 1.75,-3.43 1.63,-8.76 -0.19,-16.1 -0.28,-2.15 -0.96,-4.22 -1.88,-6.21 -0.64,-2.15 -1.35,-4.38 -2.27,-6.61 -0.96,-2.39 -2.19,-5.02 -3.7,-7.97 v -1.67 c 0,-0.96 0.75,-0.72 2.26,0.79 6.5,8.21 13.51,15.62 20.88,22.07 6.1,5.5 13.22,10.75 21.31,15.45 8.05,4.71 16.37,7.26 25.02,7.89 5.57,0.64 10.03,0.25 13.53,-1.27 2.95,-1.51 5.5,-3.9 7.26,-7.33 1.94,-3.35 1.94,-8.6 0,-15.62 -1.55,-5.02 -3.31,-10.11 -5.5,-15.45 -1.76,-4.7 -4.06,-9.96 -6.53,-15.7 -2.47,-5.73 -5.26,-11.63 -8.29,-17.84 -3.15,-7.32 -6.33,-14.41 -9.76,-21.19 -2.82,-5.9 -5.65,-11.94 -8.52,-18.32 -2.95,-6.3 -5.22,-11.63 -6.73,-16.1 -1,-2.87 -1.24,-5.57 -1,-7.96 0.4,-2 1.15,-3.74 2.4,-5.1 1.23,-1.19 3.85,-1.44 7.84,-0.56 3.35,0.56 7.09,2.47 11.15,5.66 3.43,2.71 7.57,6.69 12.67,11.95 5.13,5.33 10.91,12.82 17.37,22.55 0,0.55 0.36,0.94 0.96,1.19 0.63,0.71 1.51,0.56 2.82,-0.32" /><path
       id="path24"
       style="fill:#56555a;fill-opacity:1;fill-rule:nonzero;stroke:none"
       d="m 3930.6,1157 c 3.03,6.77 6.06,13.3 8.77,19.68 2.78,6.28 5.25,11.94 7.4,16.88 2.47,5.65 4.87,11.15 7.01,16.42 0.25,0.39 0.4,0.87 0.4,1.67 v 0.47 c -0.87,1.83 -2.39,2.95 -4.38,3.34 -1.99,0.48 -3.9,0.57 -5.81,0.25 -2.47,-0.25 -4.86,-0.96 -7.33,-1.76 -8.13,-4.45 -15.41,-10.12 -22.07,-16.96 -6.62,-6.94 -12.51,-14.26 -17.85,-22.07 -5.17,-7.89 -9.96,-15.62 -13.85,-23.42 -4.03,-7.81 -7.34,-14.5 -9.77,-20.08 -1.23,-2.31 -2.11,-4.46 -2.74,-6.45 -0.64,-1.83 -1.2,-3.51 -1.84,-4.94 -0.71,-1.52 -1.15,-3.03 -1.43,-4.55 -0.95,-4.37 -1.6,-8.2 -1.83,-11.38 -0.32,-2.95 -0.16,-5.74 0.44,-8.13 0.55,-2.62 2.11,-4.14 4.66,-4.78 1.51,-0.48 3.5,-0.39 6.05,0.48 1.8,0.63 4.18,1.83 7.13,3.75 2.95,1.99 6.45,5.09 10.4,9.47 4.06,4.46 8.16,9.32 12.55,14.66 3.7,4.7 7.68,10.2 11.98,16.57 4.46,6.3 8.37,13.22 12.11,20.88 z m -8.84,-96.16 c -7.69,0.55 -12.51,3.27 -14.58,7.96 -1.99,4.7 -2.7,9.64 -1.99,14.98 0.48,6.14 2.55,13.23 5.89,21.11 0.72,0.88 0.92,1.51 0.72,1.76 -0.12,0.32 -0.4,0.32 -0.72,0 -0.27,-0.25 -0.71,-0.56 -1.35,-0.88 -8.01,-9.32 -15.33,-16.97 -21.99,-22.71 -6.65,-5.73 -12.59,-9.96 -17.84,-12.99 -5.86,-3.49 -11.27,-5.88 -16.25,-7.09 -4.31,-1.11 -8.01,-1.34 -11.08,-0.63 -3.1,0.8 -5.57,1.84 -7.41,3.35 -2.15,1.43 -3.82,3.34 -5.1,5.73 -3.74,5.58 -5.73,11.8 -6.05,18.97 -0.27,7.09 0.19,13.7 1.36,19.83 1.27,7.33 3.34,14.58 6.05,21.67 0.92,1.99 2.03,4.38 3.22,7.01 0.96,2.39 2.2,5.18 3.7,8.2 1.61,3.03 3.43,6.38 5.59,9.89 4.06,7.09 9.28,14.89 15.77,23.42 6.46,8.52 14.14,16.4 22.94,23.58 8.73,7.25 18.61,13.07 29.4,17.69 10.91,4.46 22.58,6.53 35.21,5.88 2.15,-0.23 4.39,-0.71 6.53,-1.27 1.52,-0.63 3.11,-1.35 4.87,-2.23 1.67,-0.87 2.78,-2.07 3.43,-3.51 l 0.94,-0.87 c 0.36,-0.63 0.73,-0.63 1.4,0 0.59,1.19 1.47,2.31 2.83,3.51 2.38,2.38 5.5,3.98 9.28,4.93 1.76,0.24 3.94,0.57 6.38,0.8 4.02,0.25 9.12,0.25 15.37,0 0.51,0 0.99,-0.15 1.35,-0.48 0.6,-0.63 0.6,-1.27 0,-2.15 -7.09,-15.69 -14.1,-30.9 -20.87,-45.88 -5.89,-12.91 -11.83,-26.29 -18.04,-40.16 -6.26,-13.86 -11.48,-25.89 -15.81,-36.16 -1.16,-3.27 -2.08,-6.21 -2.28,-8.85 -0.28,-2.38 -0.08,-4.54 0.71,-6.45 0.73,-1.83 2.72,-2.71 5.83,-2.39 3.02,-0.32 6.68,0.88 10.99,3.51 3.82,2.38 8.57,6.36 14.49,12.03 5.82,5.49 12.76,14.01 20.73,25.41 l 0.94,0.96 c 0.73,0 1.24,-0.4 1.96,-1.28 0.24,-1.75 0.4,-3.82 0.4,-6.21 -0.33,-2.07 -0.76,-4.31 -1.4,-6.86 -0.63,-2.46 -2.15,-5.33 -4.62,-8.6 -9.56,-12.35 -18.56,-21.67 -27.09,-28.04 -8.51,-6.3 -16,-10.6 -22.46,-12.91 -7.72,-3.03 -14.78,-4.22 -21.35,-3.58" /><path
       id="path26"
       style="fill:#56555a;fill-opacity:1;fill-rule:nonzero;stroke:none"
       d="m 4098.62,1160.1 c 5.57,14.1 10.67,25.89 15.29,35.3 2.47,5.25 4.79,10.11 7.01,14.58 0,0.39 0,0.63 0.25,0.87 0.15,0.32 0.15,0.55 0.15,0.8 v 0.47 c -1.2,2.07 -2.87,3.34 -4.86,3.82 -1.99,0.48 -3.94,0.48 -5.77,0.17 -2.19,-0.25 -4.5,-0.96 -6.97,-2.16 -8.05,-4.45 -15.38,-10.19 -22.23,-17.21 -6.77,-7.09 -12.91,-14.49 -18.28,-22.3 -5.38,-7.88 -10.2,-15.54 -14.35,-23.18 -4.14,-7.65 -7.36,-14.26 -9.52,-19.84 -1.83,-4.14 -3.22,-7.89 -4.14,-11.39 -0.63,-1.83 -1.11,-3.42 -1.39,-4.94 -1.24,-4.7 -2.03,-8.69 -2.43,-11.95 -0.24,-3.18 0,-5.98 0.83,-8.37 0.76,-2.38 2.51,-3.82 5.3,-4.37 1.16,-0.56 3.11,-0.48 5.58,0.4 1.84,0.55 4.3,1.98 7.41,3.97 3.07,2.07 6.77,5.34 11.08,9.73 4.62,4.93 9.27,10.43 13.89,16.33 4.03,5.02 8.01,10.91 12.03,17.68 3.99,6.69 7.77,13.95 11.12,21.59 z M 3998.16,972.559 c -8.76,-1.418 -16.17,-2.219 -22.55,-2.379 -6.25,-0.16 -11.63,0.16 -15.93,0.871 -4.34,0.719 -7.97,1.91 -10.92,3.508 -2.94,1.589 -5.13,3.351 -6.68,5.089 -3.71,4.391 -5.26,9.813 -4.7,16.34 1.67,7.882 5.01,14.742 10.23,20.312 5.22,5.58 10.79,10.28 16.73,14.11 6.73,4.38 14.3,8.12 22.67,11.07 1.82,0.16 3.02,0.31 3.39,0.16 0.51,-0.16 0.75,-0.48 0.75,-1.12 0,-0.55 -0.32,-1.11 -0.92,-1.75 -3.07,-2.63 -5.73,-5.66 -7.84,-9.09 -2.15,-3.34 -4.06,-6.69 -5.58,-9.87 -1.83,-3.51 -3.54,-7.25 -5.1,-11.07 -2.47,-6.14 -3.42,-11.002 -2.75,-14.58 0.6,-3.512 1.99,-5.98 4.19,-7.488 2.15,-1.75 5.18,-2.711 9.24,-3.031 6.77,-0.309 12.9,1.027 18.47,3.668 5.58,2.863 10.6,5.812 14.83,9.16 5.02,3.741 9.31,8.051 12.98,12.741 5.02,6.54 10.2,14.98 15.78,25.34 5.57,10.51 10.52,20.48 14.81,30.27 5.26,11.47 10.35,23.34 15.3,35.69 0.6,2.07 0.47,2.63 -0.44,1.75 l -1.35,-1.27 c -7.49,-8.6 -14.39,-15.38 -20.68,-20.32 -6.37,-5.01 -11.79,-8.6 -16.45,-10.99 -5.62,-3.19 -10.52,-5.18 -14.78,-5.74 -4.38,-1.19 -8.08,-1.51 -11.15,-0.96 -3.03,0.65 -5.57,1.68 -7.37,3.2 -2.19,1.43 -3.99,3.34 -5.14,5.65 -3.43,5.9 -5.25,12.43 -5.65,19.36 -0.25,7.17 0.15,13.54 1.51,19.44 1.15,7.17 3.19,14.18 5.98,21.27 0.63,1.99 1.59,4.38 2.78,7.01 0.96,2.07 1.92,4.38 2.76,6.77 0.91,2.63 2.18,5.02 3.66,7.41 3.82,7.01 8.96,14.98 15.57,23.98 6.61,8.92 14.5,17.37 23.42,25.17 8.93,7.81 19.08,14.26 30.35,19.45 11.23,5.17 23.51,7.24 36.85,6.44 2.43,-0.39 4.62,-0.79 6.49,-1.43 1.52,-0.55 3.15,-1.35 4.79,-2.47 1.75,-0.95 2.86,-2.23 3.49,-3.67 l 0.96,-0.87 c 0.61,-0.63 1.08,-0.4 1.44,0.48 0.55,0.87 1.43,1.83 2.66,3.03 2.6,2.38 5.63,3.98 9.29,4.93 1.87,0.24 3.95,0.57 6.05,0.8 3.67,0.56 8.97,0.56 15.74,0 0.59,0 1.03,-0.15 1.39,-0.48 0.64,-0.63 0.64,-1.27 0,-2.15 -8.04,-18.56 -15.77,-35.92 -23.18,-52.1 -3.03,-7.01 -6.21,-14.26 -9.48,-21.59 -3.19,-7.41 -6.37,-14.33 -9.49,-21.19 -3.14,-6.77 -5.88,-12.99 -8.35,-18.72 -2.44,-5.73 -4.62,-10.67 -6.5,-14.81 -3.39,-7.57 -6.34,-14.51 -9,-20.56 -2.59,-5.98 -5.18,-11.55 -7.65,-16.65 -2.43,-5.18 -4.94,-10.12 -7.45,-14.58 -2.38,-4.62 -5.02,-9.32 -7.84,-13.86 -8.61,-13.62 -17.57,-24.22 -26.9,-32.11 -9.2,-7.802 -17.84,-13.7 -25.89,-17.841 -9.31,-5.019 -18.24,-8.211 -26.84,-9.73" /><path
       id="path28"
       style="fill:#56555a;fill-opacity:1;fill-rule:nonzero;stroke:none"
       d="m 4232.46,1253.15 c -5.58,0 -9.76,2.31 -12.59,6.69 -2.71,4.38 -3.43,9.73 -1.84,15.86 1.52,6.13 4.98,11.46 10.29,15.85 5.17,4.46 10.55,6.61 16.17,6.61 5.57,0 9.68,-2.15 12.47,-6.61 2.82,-4.39 3.42,-9.72 1.79,-15.85 -1.48,-6.13 -4.82,-11.48 -9.88,-15.86 -5.02,-4.38 -10.55,-6.69 -16.41,-6.69 z m -5.1,-152.16 c -9.01,-10.59 -17.45,-18.81 -25.26,-24.7 -7.89,-5.97 -14.94,-10.11 -21.03,-12.74 -7.17,-3.35 -13.62,-5.11 -19.52,-5.34 -6.85,-0.88 -11.95,-0.32 -15.3,1.75 -3.37,2.08 -5.88,4.54 -7.4,7.49 -1.56,3.19 -2.31,7.01 -2.31,11.39 -0.32,2.15 0,4.54 0.88,7.42 1.03,2.78 1.82,5.57 2.78,8.51 1.24,3.19 2.51,6.61 3.71,10.12 2.82,6.45 6.65,15.3 11.43,26.29 4.74,11.07 9.64,22.07 14.82,33.14 5.02,11 9.72,21.12 14.06,30.43 4.34,9.25 7.48,15.62 9.28,18.81 0.71,0.79 1.15,1.59 1.67,2.15 0.4,0.56 0.8,1.11 1.04,1.75 l 1.03,1.83 2.79,2.55 c 0.87,0.56 2.07,1.44 3.43,2.39 1.39,1.12 3.03,1.92 4.86,2.47 4.3,1.75 8.56,2.94 12.74,3.51 4.23,0.64 8.52,0.71 13.14,0.56 0.4,0.15 0.77,0.15 1.44,0 0.96,-0.96 1.12,-1.84 0.48,-2.64 -0.64,-1.83 -1.44,-3.58 -2.31,-5.41 -0.64,-1.44 -1.43,-3.27 -2.55,-5.42 -1.04,-2.23 -2.27,-4.7 -3.5,-7.32 -3.99,-9.09 -8.53,-19.29 -13.39,-30.52 -4.38,-9.41 -9.4,-20.71 -15.33,-33.94 -5.86,-13.22 -12.19,-27.4 -18.93,-42.7 l -1.9,-4.46 c -0.96,-2.39 -1.36,-4.55 -1.36,-6.69 -0.4,-1.75 -0.08,-3.43 0.64,-4.7 0.8,-1.59 2.22,-2.47 4.42,-2.71 1.23,-0.32 2.47,-0.32 3.78,0 1.16,0.24 2.67,0.72 4.63,1.27 1.82,0.56 3.89,1.67 6.44,3.11 9.56,5.82 20.56,17.76 32.82,35.69 l 0.96,0.96 c 0.68,0.56 1.28,0.23 1.92,-0.96 0.87,-1.99 1.35,-4.22 1.35,-6.53 0,-2.07 -0.4,-4.54 -1.11,-7.34 -0.8,-2.78 -2.6,-5.96 -5.34,-9.47" /><path
       id="path30"
       style="fill:#56555a;fill-opacity:1;fill-rule:nonzero;stroke:none"
       d="m 4331.92,1157 c 3.07,6.77 6.01,13.3 8.8,19.68 2.79,6.28 5.18,11.94 7.37,16.88 2.59,5.65 4.83,11.15 6.97,16.42 0.32,0.39 0.39,0.87 0.39,1.67 v 0.47 c -0.87,1.83 -2.38,2.95 -4.33,3.34 -2.03,0.48 -3.99,0.57 -5.78,0.25 -2.46,-0.25 -4.93,-0.96 -7.41,-1.76 -8,-4.45 -15.38,-10.12 -22.03,-16.96 -6.61,-6.94 -12.55,-14.26 -17.76,-22.07 -5.38,-7.89 -9.92,-15.62 -13.98,-23.42 -3.98,-7.81 -7.25,-14.5 -9.72,-20.08 -1.19,-2.31 -2.11,-4.46 -2.78,-6.45 -0.65,-1.83 -1.21,-3.51 -1.76,-4.94 -0.68,-1.52 -1.19,-3.03 -1.48,-4.55 -0.88,-4.37 -1.55,-8.2 -1.82,-11.38 -0.36,-2.95 -0.21,-5.74 0.43,-8.13 0.68,-2.62 2.19,-4.14 4.63,-4.78 1.59,-0.48 3.58,-0.39 6,0.48 1.88,0.63 4.31,1.83 7.26,3.75 2.86,1.99 6.33,5.09 10.4,9.47 3.97,4.46 8.16,9.32 12.5,14.66 3.71,4.7 7.64,10.2 12.07,16.57 4.34,6.3 8.33,13.22 12.03,20.88 z m -8.81,-96.16 c -7.72,0.55 -12.58,3.27 -14.65,7.96 -1.99,4.7 -2.71,9.64 -2.08,14.98 0.56,6.14 2.64,13.23 6.11,21.11 0.5,0.88 0.79,1.51 0.63,1.76 -0.13,0.32 -0.4,0.32 -0.63,0 -0.29,-0.25 -0.81,-0.56 -1.44,-0.88 -8.05,-9.32 -15.42,-16.97 -21.95,-22.71 -6.65,-5.73 -12.67,-9.96 -17.92,-12.99 -5.82,-3.49 -11.28,-5.88 -16.21,-7.09 -4.35,-1.11 -7.97,-1.34 -11.04,-0.63 -3.14,0.8 -5.58,1.84 -7.49,3.35 -2.15,1.43 -3.83,3.34 -5.1,5.73 -3.66,5.58 -5.69,11.8 -5.97,18.97 -0.25,7.09 0.19,13.7 1.35,19.83 1.31,7.33 3.27,14.58 6.06,21.67 0.87,1.99 1.95,4.38 3.22,7.01 0.88,2.39 2.15,5.18 3.7,8.2 1.55,3.03 3.43,6.38 5.54,9.89 4.02,7.09 9.29,14.89 15.82,23.42 6.48,8.52 14.06,16.4 22.86,23.58 8.84,7.25 18.6,13.07 29.47,17.69 10.84,4.46 22.55,6.53 35.22,5.88 2.07,-0.23 4.31,-0.71 6.45,-1.27 1.56,-0.63 3.19,-1.35 4.86,-2.23 1.72,-0.87 2.87,-2.07 3.5,-3.51 l 0.96,-0.87 c 0.2,-0.63 0.72,-0.63 1.36,0 0.63,1.19 1.51,2.31 2.78,3.51 2.43,2.38 5.5,3.98 9.29,4.93 1.75,0.24 3.98,0.57 6.49,0.8 3.95,0.25 9.08,0.25 15.22,0 0.63,0 1.11,-0.15 1.43,-0.48 0.64,-0.63 0.64,-1.27 0,-2.15 -7.14,-15.69 -14.1,-30.9 -20.79,-45.88 -5.94,-12.91 -11.99,-26.29 -18.12,-40.16 -6.19,-13.86 -11.36,-25.89 -15.75,-36.16 -1.27,-3.27 -2.07,-6.21 -2.3,-8.85 -0.4,-2.38 -0.08,-4.54 0.67,-6.45 0.76,-1.83 2.63,-2.71 5.78,-2.39 3.07,-0.32 6.85,0.88 11.16,3.51 3.66,2.38 8.4,6.36 14.33,12.03 5.86,5.49 12.79,14.01 20.87,25.41 l 0.88,0.96 c 0.64,0 1.28,-0.4 1.84,-1.28 0.31,-1.75 0.51,-3.82 0.51,-6.21 -0.4,-2.07 -0.84,-4.31 -1.43,-6.86 -0.6,-2.46 -2.19,-5.33 -4.66,-8.6 -9.56,-12.35 -18.56,-21.67 -27.05,-28.04 -8.53,-6.3 -16.01,-10.6 -22.46,-12.91 -7.77,-3.03 -14.86,-4.22 -21.32,-3.58" /><path
       id="path32"
       style="fill:#56555a;fill-opacity:1;fill-rule:nonzero;stroke:none"
       d="m 4626.4,1207.34 c 0.56,0.88 0.96,1.91 0.96,3.1 0,2 -0.96,3.6 -2.75,4.87 -1.64,0.8 -3.06,1.36 -4.7,1.51 -1.59,0.16 -2.99,0 -4.1,-0.23 -1.56,-0.32 -3.03,-0.73 -4.22,-1.28 -1.92,-0.32 -3.99,-1.27 -6.42,-2.71 -2.31,-1.43 -4.86,-3.5 -7.97,-5.9 -3.1,-2.54 -6.8,-6.21 -11.03,-10.83 -6.85,-7.41 -13.38,-15.69 -19.51,-25.17 -5.35,-7.97 -10.72,-17.29 -16.46,-27.97 -5.69,-10.83 -10.31,-22.46 -13.66,-35.13 -0.71,-3.19 -0.96,-6.22 -0.96,-8.92 0,-2.23 0.48,-4.3 1.12,-6.14 0.8,-1.74 2.47,-2.62 4.9,-2.62 1.87,0 4.26,0.63 7.05,1.75 2.39,1.2 5.42,3.35 8.92,6.22 3.59,2.94 8.01,7.4 13.26,13.22 5.46,5.58 11.24,13.07 17.09,22.06 5.3,7.66 11.24,17.61 17.85,29.79 6.65,12.2 13.54,27.02 20.63,44.38 z m 85.25,104.92 c -9.01,-18.48 -17.9,-37.28 -26.85,-56.32 -7.73,-16.57 -15.98,-34.58 -24.78,-54.1 -8.84,-19.59 -17.24,-38.31 -25.33,-56.32 l -19.88,-45.89 c -0.92,-2.62 -1.4,-4.86 -1.4,-6.61 0,-1.83 0.33,-3.35 0.96,-4.62 0.63,-1.35 2.16,-2.31 4.54,-2.87 3.19,-0.55 6.97,0.48 11.63,3.11 3.99,2.31 9.01,6.22 14.87,11.63 5.77,5.5 12.82,13.94 20.83,25.42 l 0.91,0.87 c 0.68,0 1.08,-0.39 1.39,-1.27 0.88,-1.76 1.4,-3.83 1.4,-6.21 0,-2.08 -0.28,-4.39 -0.91,-6.86 -0.65,-2.47 -2.2,-5.25 -4.63,-8.12 -10.51,-12.99 -20.23,-22.55 -29.15,-28.68 -9,-6.22 -16.73,-10.44 -23.18,-12.75 -8.09,-2.95 -15.22,-3.9 -21.36,-2.71 -6.17,0.56 -10.31,2.47 -12.5,5.74 -2.07,3.26 -3.35,6.69 -3.67,10.59 -0.32,4.38 0.4,9.32 2.23,14.9 0,0.95 0.4,1.91 1,3.19 0.59,0.87 1.15,2.07 1.59,3.51 0.52,1.51 1.11,2.94 2.03,4.37 0.4,0.88 0.2,1.36 -0.44,1.36 -0.23,0 -0.75,-0.08 -1.36,-0.48 -10.19,-12.03 -19.27,-20.79 -27.28,-26.45 -8.09,-5.57 -14.81,-9.56 -20.43,-11.87 -6.49,-2.63 -11.99,-3.74 -16.69,-3.11 -5.82,0.64 -10.12,2.71 -12.91,6.38 -2.78,3.74 -4.7,7.57 -5.61,11.71 -1.16,5.02 -1.64,10.6 -1.4,16.81 1.6,10.59 4.46,21.51 8.77,32.58 3.78,9.4 9.08,20.07 16.09,31.87 6.89,11.71 16.21,23.42 28,35.21 8.01,7.65 16.45,14.17 25.45,19.44 7.69,4.7 16.22,8.45 25.5,11.31 9.27,2.71 18.48,2.79 27.8,0.16 l 1.8,-0.88 c 1.31,-0.63 2.18,-1.2 2.82,-1.75 0.28,-0.32 0.63,-0.48 0.96,-0.48 0.55,0 1.03,0.32 1.35,0.88 6.81,14.73 12.99,28.2 18.56,40.54 2.47,5.42 4.9,10.69 7.41,15.94 2.47,5.26 4.9,10.2 7.13,14.74 2.31,4.54 4.34,8.52 6.01,11.95 1.67,3.35 3.03,5.98 4.03,7.73 0.55,0.87 1.11,1.67 1.59,2.39 0.36,0.71 0.84,1.36 1.11,1.99 l 0.96,1.75 c 0.61,0.96 1.56,1.76 2.75,2.63 2.47,1.83 5.42,3.5 8.8,4.86 4.31,1.51 8.49,2.55 12.51,3.18 4.03,0.57 8.37,0.8 13.03,0.8 0.23,0 0.71,-0.08 1.31,-0.4 0.92,-0.95 1.16,-1.75 0.53,-2.62 -0.69,-1.52 -1.44,-3.11 -2.4,-4.95 -0.51,-1.43 -1.35,-3.34 -2.27,-5.65 -0.96,-2.39 -1.99,-4.94 -3.22,-7.57" /><path
       id="path34"
       style="fill:#56555a;fill-opacity:1;fill-rule:nonzero;stroke:none"
       d="m 4761.16,1177.31 c 5.25,7.65 9,13.94 11.34,18.8 2.24,4.86 3.75,8.85 4.35,12.11 0.6,3.43 0.48,6.3 -0.52,8.37 -1.19,2.38 -2.99,3.58 -5.46,3.58 -1.27,0 -2.47,-0.32 -3.62,-0.88 -7.17,-2.7 -13.86,-8.04 -20.31,-16.01 -6.42,-7.88 -12.19,-16.17 -17.41,-24.7 -5.89,-9.64 -11.6,-20.39 -17.01,-32.18 v -0.88 c 0,-0.55 0.4,-0.88 1.27,-0.88 7.09,0.56 13.43,2.63 19.13,5.98 5.65,3.35 10.67,7.17 14.9,11.31 5.02,4.63 9.39,9.8 13.34,15.38 z m -67.28,-116.95 c -7.41,1.28 -13.35,3.42 -17.85,6.69 -4.46,3.19 -7.84,7.1 -10.12,11.64 -2.3,4.54 -3.82,9.47 -4.41,14.73 -0.61,5.26 -0.61,10.68 0,15.93 1.23,12.43 5.21,26.06 11.98,41.04 3.11,6.44 6.94,13.45 11.48,21.02 4.69,7.41 10.27,14.74 16.72,21.83 6.46,7.01 13.79,13.46 22.15,19.36 8.21,5.89 17.69,10.76 28.13,14.58 7.72,2.31 15.06,3.74 22.06,4.46 6.3,0.56 12.51,0 18.6,-1.83 6.1,-1.68 10.96,-5.58 14.35,-11.47 2.19,-5.58 2.74,-11.48 1.82,-17.69 -0.59,-5.25 -2.74,-11.31 -6.49,-18.09 -3.66,-6.76 -10.51,-13.78 -20.39,-21.11 -6.46,-5.02 -13.74,-9.64 -21.71,-13.7 -6.81,-3.51 -14.7,-6.92 -23.62,-10.2 -9.08,-3.18 -18.57,-5.25 -28.72,-6.13 h -0.96 c -0.35,0 -0.75,-0.32 -1.35,-0.88 -3.79,-10.27 -5.46,-19.27 -5.13,-26.92 0,-3.18 0.47,-6.46 1.15,-9.64 0.76,-3.27 2.22,-6.21 4.42,-8.45 2.15,-2.3 4.97,-4.14 8.49,-5.5 3.62,-1.34 7.92,-1.74 13.22,-1.19 6.09,0.64 12.59,2.71 19.36,6.29 5.89,3.11 12.38,7.89 19.56,14.03 7.28,6.21 14.81,15.21 22.46,27.01 0.32,0.23 0.63,0.39 0.95,0.39 0.88,0 1.48,-0.56 1.84,-1.75 0.56,-2.15 0.79,-4.31 0.48,-6.61 -0.28,-1.99 -0.88,-4.46 -1.64,-7.26 -0.75,-2.78 -2.42,-5.65 -4.82,-8.68 -10.47,-12.59 -21.15,-21.82 -31.94,-27.56 -10.76,-5.66 -20.6,-9.72 -29.56,-12.03 -10.48,-2.71 -20.64,-3.43 -30.51,-2.31" /><path
       id="path36"
       style="fill:#56555a;fill-opacity:1;fill-rule:nonzero;stroke:none"
       d="m 4881.1,1125.69 c 0.55,-3.19 0.95,-5.82 1.11,-7.66 0.24,-1.98 0.16,-3.66 -0.24,-5.09 -0.32,-1.6 -0.87,-2.71 -1.83,-3.59 -7.65,-10.83 -15.54,-19.51 -23.43,-26.12 -7.88,-6.38 -15.05,-11.4 -21.5,-14.9 -7.65,-4.14 -15.22,-6.94 -22.23,-8.37 -8.92,-1.52 -15.26,-0.79 -19,1.75 -3.7,2.71 -6.17,6.06 -7.45,10.12 -1.15,4.7 -1.15,10.2 0,16.33 0.72,3.51 2.11,8.29 4.38,14.1 2.36,5.98 4.74,11.55 7.21,17.29 2.83,6.45 5.94,13.14 9.25,20.24 4.7,10.27 9.2,20.63 13.74,30.91 4.46,10.35 8.56,19.6 12.26,27.8 3.99,9.72 7.97,18.8 12.04,27.33 6.45,14.73 12.51,28.2 17.99,40.62 2.56,5.26 4.98,10.52 7.49,15.86 2.47,5.33 4.75,10.27 6.86,14.74 2.23,4.54 4.14,8.6 5.89,11.95 1.68,3.42 2.99,5.89 3.94,7.72 0.61,0.8 1.08,1.67 1.6,2.4 0.4,0.79 0.87,1.42 1.16,1.99 l 0.88,1.83 c 0.67,0.8 1.59,1.67 2.78,2.54 1.91,1.21 4.77,2.88 8.84,4.95 4.42,1.43 8.44,2.54 12.47,3.35 4.02,0.63 8.41,0.86 12.95,0.55 0.36,0 0.83,-0.16 1.43,-0.4 0.92,-0.88 1.08,-1.91 0.48,-3.1 -0.59,-1.52 -1.36,-3.03 -2.27,-4.79 -0.64,-1.59 -1.4,-3.42 -2.35,-5.58 -0.88,-2.22 -1.99,-4.61 -3.27,-7.24 -6.85,-15.62 -13.95,-31.47 -21.27,-47.73 -6.21,-14.09 -13.07,-29.39 -20.63,-45.8 -7.61,-16.49 -14.91,-32.66 -22,-48.51 -4.62,-9.41 -8.83,-18.72 -12.5,-27.89 -3.42,-7.65 -6.77,-15.53 -10.15,-23.74 -3.43,-8.28 -6.38,-15.05 -8.85,-20.39 -1.63,-3.19 -2.19,-6.06 -1.95,-8.36 0,-2 0.88,-3.75 2.39,-5.02 1.51,-1.36 4.54,-1.44 8.84,-0.25 3.02,0.56 6.7,2.47 10.6,5.66 3.42,2.79 7.81,6.77 13.3,12.27 5.26,5.41 11.6,12.98 18.76,22.71 0.29,0.23 0.6,0.39 0.84,0.39 0.64,0 1.12,-0.31 1.44,-0.87" /><path
       id="path38"
       style="fill:#56555a;fill-opacity:1;fill-rule:nonzero;stroke:none"
       d="m 5107.18,1112.38 c -2.47,-4.94 -5.81,-9.56 -9.95,-13.78 -4.23,-4.31 -8.45,-8.05 -12.79,-11.31 -4.9,-3.75 -9.96,-7.33 -15.18,-10.6 -7.17,-5.01 -14.06,-8.6 -20.63,-10.76 -6.69,-2.22 -12.59,-3.74 -17.92,-4.54 -6.13,-1.27 -12.03,-1.59 -17.57,-1.03 -9.83,0.32 -17.32,2.62 -22.23,6.93 -4.94,4.14 -8.56,8.84 -10.71,13.78 -2.47,5.9 -3.51,12.74 -3.19,20.31 0.32,9.96 2.31,20.4 5.97,31.31 3.11,9.48 8.09,19.92 14.83,31.63 6.92,11.55 16.56,23.59 29.19,35.93 7.45,7.33 15.5,13.7 24.1,19.04 7.45,4.39 15.94,7.89 25.54,10.68 9.6,2.87 19.75,3.1 30.54,0.8 4.07,-1.28 7.13,-3.35 9.25,-6.22 1.94,-2.39 3.07,-5.74 3.78,-9.95 0.52,-4.23 -0.71,-9.81 -3.78,-16.58 -2.47,-4.69 -5.5,-9.24 -9.25,-13.62 -3.35,-3.83 -7.6,-7.65 -12.74,-11.32 -5.06,-3.66 -11.31,-6.44 -18.8,-8.12 -0.56,0 -1.16,0 -1.76,0 -0.59,0 -1.27,0.08 -1.86,0.4 -0.36,0.32 -0.53,0.63 -0.53,0.95 0,0.25 0,0.64 0,1.04 0,0.48 0.32,0.96 0.96,1.59 4.34,4.46 8.17,9.25 11.59,14.5 2.79,4.47 5.34,9.41 7.69,14.82 2.23,5.42 3.38,10.99 3.38,16.49 0.29,1.28 0.21,2.32 -0.48,3.11 -1.19,1.83 -3.45,2.39 -6.92,1.83 -1.47,-0.63 -3.54,-1.59 -6.02,-3.1 -2.15,-1.44 -4.82,-3.51 -8.04,-6.15 -3.35,-2.7 -7.05,-6.52 -11.4,-11.54 -5.81,-6.78 -11.55,-14.18 -17.13,-22.47 -4.58,-7.01 -9.31,-15.37 -14.1,-24.93 -4.85,-9.48 -8.48,-20.08 -10.95,-31.47 -1.55,-7.09 -1.79,-13.54 -0.91,-19.04 0.67,-5.02 2.47,-9.4 5.57,-13.46 2.99,-3.99 8.36,-5.82 15.81,-5.5 5.54,-0.64 11.52,0.55 18.01,3.5 5.58,2.24 12.07,6.54 19.72,12.59 7.53,5.98 15.85,15.14 24.73,27.57 l 0.92,0.87 c 0.35,0.32 1,0.32 1.91,0 0.91,-1.12 1.67,-2.31 2.31,-3.51 0.63,-1.27 0.88,-2.7 0.88,-4.45 0,-1.76 -0.6,-3.83 -1.84,-6.22" /><path
       id="path40"
       style="fill:#56555a;fill-opacity:1;fill-rule:nonzero;stroke:none"
       d="m 5202.62,1253.15 c -5.61,0 -9.75,2.31 -12.59,6.69 -2.7,4.38 -3.42,9.73 -1.9,15.86 1.54,6.13 5.06,11.46 10.2,15.85 5.33,4.46 10.67,6.61 16.25,6.61 5.61,0 9.71,-2.15 12.5,-6.61 2.79,-4.39 3.42,-9.72 1.83,-15.85 -1.51,-6.13 -4.85,-11.48 -9.87,-15.86 -5.1,-4.38 -10.6,-6.69 -16.42,-6.69 z m -5.21,-152.16 c -8.89,-10.59 -17.41,-18.81 -25.22,-24.7 -7.89,-5.97 -14.94,-10.11 -21.11,-12.74 -7.05,-3.35 -13.55,-5.11 -19.43,-5.34 -6.78,-0.88 -11.84,-0.32 -15.27,1.75 -3.38,2.08 -5.85,4.54 -7.36,7.49 -1.52,3.19 -2.32,7.01 -2.32,11.39 -0.35,2.15 0,4.54 0.88,7.42 0.88,2.78 1.92,5.57 2.8,8.51 1.19,3.19 2.46,6.61 3.66,10.12 2.74,6.45 6.61,15.3 11.38,26.29 4.75,11.07 9.72,22.07 14.87,33.14 5.06,11 9.75,21.12 14.01,30.43 4.39,9.25 7.45,15.62 9.29,18.81 0.71,0.79 1.27,1.59 1.59,2.15 0.56,0.56 0.88,1.11 1.23,1.75 l 0.92,1.83 2.75,2.55 c 0.96,0.56 2.11,1.44 3.55,2.39 1.35,1.12 3.03,1.92 4.77,2.47 4.35,1.75 8.61,2.94 12.76,3.51 4.22,0.64 8.64,0.71 13.22,0.56 0.31,0.15 0.79,0.15 1.43,0 0.87,-0.96 1.03,-1.84 0.47,-2.64 -0.63,-1.83 -1.34,-3.58 -2.34,-5.41 -0.6,-1.44 -1.47,-3.27 -2.47,-5.42 -1.19,-2.23 -2.31,-4.7 -3.58,-7.32 -3.99,-9.09 -8.49,-19.29 -13.43,-30.52 -4.34,-9.41 -9.44,-20.71 -15.29,-33.94 -5.9,-13.22 -12.19,-27.4 -18.97,-42.7 l -1.87,-4.46 c -0.91,-2.39 -1.39,-4.55 -1.39,-6.69 -0.28,-1.75 -0.08,-3.43 0.71,-4.7 0.8,-1.59 2.2,-2.47 4.39,-2.71 1.19,-0.32 2.47,-0.32 3.62,0 1.32,0.24 2.87,0.72 4.7,1.27 1.87,0.56 4.02,1.67 6.49,3.11 9.56,5.82 20.56,17.76 32.95,35.69 l 0.91,0.96 c 0.6,0.56 1.2,0.23 1.91,-0.96 0.88,-1.99 1.32,-4.22 1.32,-6.53 0,-2.07 -0.4,-4.54 -1.16,-7.34 -0.75,-2.78 -2.54,-5.96 -5.37,-9.47" /><path
       id="path42"
       style="fill:#56555a;fill-opacity:1;fill-rule:nonzero;stroke:none"
       d="m 5364.43,1125.69 c 1.15,-2.39 1.75,-4.63 1.59,-6.86 -0.28,-2.14 -0.6,-4.14 -1.24,-5.89 -0.91,-2.15 -1.79,-3.99 -2.74,-5.74 -5.26,-7.09 -10.6,-13.22 -15.94,-18.4 -5.5,-5.1 -10.35,-9.32 -14.58,-12.51 -5.33,-3.9 -10.43,-6.93 -15.29,-9.24 -5.26,-2.63 -10.04,-4.46 -14.18,-5.58 -4.18,-1.03 -8.01,-1.67 -11.4,-1.98 -3.66,-0.25 -7.09,-0.09 -10.2,0.47 -5.85,1.43 -9.35,4.46 -10.55,9.08 -1.27,4.46 -1.63,9.25 -1.08,14.19 1.08,5.96 2.91,12.42 5.66,19.59 1.52,3.19 3.27,6.93 5.1,11.15 1.83,4.31 3.51,8.21 5.01,11.72 1.88,4.14 3.91,8.36 6.06,12.82 1.56,3.18 3.08,6.29 4.71,9.24 1.51,2.95 2.7,5.58 3.62,7.97 1.23,2.63 2.43,4.78 3.27,6.53 5.29,10.04 8.84,17.77 10.91,23.19 2.03,5.49 3.07,9.56 3.07,12.18 0,3.27 -0.88,4.94 -2.31,5.26 -2.51,0.88 -5.74,0.24 -9.6,-1.91 -3.87,-2.23 -8.08,-5.34 -12.51,-9.32 -4.42,-3.99 -8.89,-8.44 -13.14,-13.23 -4.35,-4.86 -8.17,-9.48 -11.59,-13.85 -3.11,-4.15 -6.22,-8.14 -9.2,-11.96 -2.51,-3.27 -5.19,-6.76 -7.93,-10.59 -2.8,-3.74 -5.1,-7.34 -7.02,-10.6 -3.35,-5.9 -6.28,-11.39 -8.76,-16.73 -2.54,-5.34 -4.82,-10.04 -6.97,-14.18 -2.43,-5.02 -4.58,-9.71 -6.45,-14.1 -1.23,-2.31 -2.47,-4.54 -3.7,-6.61 -1.24,-2.07 -2.44,-4.14 -3.47,-6.22 -1.11,-1.99 -2.39,-3.82 -3.99,-5.25 -3.06,-3.27 -6.57,-5.58 -10.35,-6.94 -3.9,-1.59 -7.69,-2.62 -11.39,-3.18 -4.35,-0.88 -8.65,-1.19 -13.03,-0.88 -2.39,0.24 -3.62,1.11 -3.62,2.63 0,0.56 0.15,1.43 0.44,2.23 3.34,6.77 6.65,13.63 9.95,20.47 3.27,6.94 6.14,13.15 8.52,18.72 2.83,6.54 5.54,12.68 7.93,18.65 6.17,14.65 12.03,28.12 17.61,40.47 2.19,5.34 4.42,10.68 6.97,15.93 2.47,5.26 4.62,10.2 6.69,14.82 2.03,4.54 3.83,8.44 5.5,11.87 1.75,3.43 3.03,5.98 4.06,7.73 0.6,0.8 1.04,1.59 1.55,2.47 0.44,0.72 0.84,1.28 1.16,1.99 l 0.95,1.76 c 0.64,0.79 1.52,1.74 2.76,2.62 0.95,0.56 2.03,1.35 3.46,2.15 1.35,0.88 3.19,1.67 5.34,2.23 4.3,1.76 8.37,2.95 11.99,3.5 3.82,0.65 7.93,0.88 12.59,0.88 0.27,-0.23 0.75,-0.63 1.35,-0.88 0.91,-0.87 1.08,-1.9 0.43,-3.02 -0.55,-1.19 -1.34,-2.71 -2.3,-4.38 -0.56,-1.51 -1.44,-3.35 -2.51,-5.57 -1.07,-2.24 -2.24,-4.62 -3.47,-7.26 -1.32,-3.26 -2.66,-6.45 -4.18,-9.72 -1.56,-2.95 -3.23,-6.13 -4.82,-9.71 -1.75,-3.51 -3.55,-7.34 -5.29,-11.48 -0.4,-0.88 0,-1.27 0.83,-1.27 0.32,0 0.8,0.16 1.39,0.39 1.88,2.32 3.87,4.63 5.98,7.01 1.91,2.16 4.1,4.39 6.49,6.86 2.51,2.47 5.18,4.94 7.88,7.32 7.17,6.78 15.46,13.31 24.87,19.85 9.35,6.44 19.16,10.27 29.39,11.54 5.58,0.24 9.96,-0.39 13.42,-1.83 3.07,-1.51 5.54,-3.9 7.45,-7.01 1.84,-3.26 1.84,-8.44 0,-15.53 -1.51,-4.95 -3.47,-10.2 -5.58,-15.45 -1.87,-4.63 -4.06,-9.96 -6.49,-15.86 -2.51,-5.89 -5.29,-11.95 -8.32,-18.09 -3.11,-6.21 -6.05,-12.34 -8.85,-18.48 -2.43,-5.34 -5.09,-11.07 -7.64,-17.28 -2.59,-6.22 -4.98,-11.8 -7.17,-16.65 -1.24,-3.03 -1.95,-5.67 -2.36,-7.97 -0.23,-2.15 -0.03,-4.06 0.77,-5.82 0.75,-1.75 2.62,-2.78 5.81,-3.03 1.2,-0.31 2.55,-0.15 4.06,0.4 1.59,0.56 3.43,1.44 5.66,2.4 2.15,1.11 4.78,2.78 7.81,5.09 7.49,5.9 17.01,16.89 28.76,33.15 0,0.23 0.15,0.39 0.47,0.39 0.64,0 1.2,-0.31 1.92,-0.87" /><path
       id="path44"
       style="fill:#56555a;fill-opacity:1;fill-rule:nonzero;stroke:none"
       d="m 5456.6,1177.31 c 5.13,7.65 8.84,13.94 11.15,18.8 2.39,4.86 3.79,8.85 4.46,12.11 0.64,3.43 0.4,6.3 -0.52,8.37 -1.15,2.38 -3.06,3.58 -5.49,3.58 -1.27,0 -2.44,-0.32 -3.7,-0.88 -7.02,-2.7 -13.78,-8.04 -20.16,-16.01 -6.5,-7.88 -12.27,-16.17 -17.53,-24.7 -5.81,-9.64 -11.51,-20.39 -17.05,-32.18 v -0.88 c 0,-0.55 0.48,-0.88 1.4,-0.88 7.05,0.56 13.42,2.63 19.08,5.98 5.61,3.35 10.63,7.17 14.89,11.31 4.94,4.63 9.4,9.8 13.47,15.38 z m -67.4,-116.95 c -7.41,1.28 -13.31,3.42 -17.85,6.69 -4.37,3.19 -7.88,7.1 -10.15,11.64 -2.27,4.54 -3.78,9.47 -4.34,14.73 -0.64,5.26 -0.64,10.68 0,15.93 1.19,12.43 5.18,26.06 11.94,41.04 3.11,6.44 6.98,13.45 11.56,21.02 4.62,7.41 10.19,14.74 16.57,21.83 6.45,7.01 13.86,13.46 22.23,19.36 8.28,5.89 17.6,10.76 28.08,14.58 7.69,2.31 15.05,3.74 22.18,4.46 6.22,0.56 12.43,0 18.49,-1.83 6.13,-1.68 10.91,-5.58 14.42,-11.47 2.11,-5.58 2.78,-11.48 1.83,-17.69 -0.68,-5.25 -2.79,-11.31 -6.54,-18.09 -3.66,-6.76 -10.51,-13.78 -20.35,-21.11 -6.49,-5.02 -13.78,-9.64 -21.79,-13.7 -6.85,-3.51 -14.69,-6.92 -23.58,-10.2 -8.97,-3.18 -18.56,-5.25 -28.76,-6.13 h -0.96 c -0.19,0 -0.75,-0.32 -1.35,-0.88 -3.67,-10.27 -5.41,-19.27 -5.01,-26.92 0,-3.18 0.31,-6.46 1.11,-9.64 0.71,-3.27 2.15,-6.21 4.34,-8.45 2.11,-2.3 5.02,-4.14 8.52,-5.5 3.59,-1.34 7.93,-1.74 13.18,-1.19 6.15,0.64 12.68,2.71 19.45,6.29 5.86,3.11 12.35,7.89 19.6,14.03 7.24,6.21 14.69,15.21 22.42,27.01 0.24,0.23 0.64,0.39 0.96,0.39 0.87,0 1.51,-0.56 1.83,-1.75 0.6,-2.15 0.75,-4.31 0.44,-6.61 -0.32,-1.99 -0.84,-4.46 -1.59,-7.26 -0.8,-2.78 -2.43,-5.65 -4.86,-8.68 -10.44,-12.59 -21.12,-21.82 -31.95,-27.56 -10.76,-5.66 -20.63,-9.72 -29.56,-12.03 -10.48,-2.71 -20.71,-3.43 -30.51,-2.31" /><path
       id="path46"
       style="fill:#56555a;fill-opacity:1;fill-rule:nonzero;stroke:none"
       d="m 5038.59,1934.67 c -59.5,0 -112.33,-16.61 -152.24,-69.15 -19.6,52.54 -65.64,69.15 -121.61,69.15 -58.59,0 -106.95,-21.51 -144.24,-67 l -2.07,-1.75 7.57,58.24 h -108.26 c -30.71,-1.2 -55.49,-23.67 -60.78,-53.22 -19.2,-128.16 -42.82,-255.87 -66.68,-383.41 h 110.97 c 29.87,1.43 54.09,23.02 59.91,51.7 8.6,60.46 21.31,140.53 32.26,202.51 6.5,37.5 28.44,86.65 73.97,86.65 36.8,0 51.9,-31.54 47.92,-62.11 -2.07,-16.66 -46.77,-280.11 -46.77,-280.11 l 106.91,1.36 c 31.63,1.51 57.05,25.49 60.95,56.48 v 0 c 9.16,61.34 21.63,143.88 32.59,204.74 6.48,35.71 30.26,79.64 73.12,79.64 38.53,0 50.68,-34.17 46.69,-65.7 -5.89,-46.29 -46,-275.16 -46,-275.16 h 114.83 c 31.39,1.51 56.72,25.25 60.95,55.84 20.51,125.16 46.12,253.4 48.55,273.12 10.92,85.83 -50.62,118.18 -128.54,118.18" /><path
       id="path48"
       style="fill:#56555a;fill-opacity:1;fill-rule:nonzero;stroke:none"
       d="m 6298.98,1924.16 h -182.91 c -32.46,-41.99 -64.88,-84.01 -94.84,-126.91 l -41.59,126.91 H 5780.91 L 5889.3,1716.8 5690.49,1487.53 h 189.85 l 106.43,141.72 50.27,-141.72 h 195.98 c -39.31,76.16 -78.63,151.44 -114.32,229.27 l 180.28,207.36" /><path
       id="path50"
       style="fill:#56555a;fill-opacity:1;fill-rule:nonzero;stroke:none"
       d="m 3141.97,1924.16 c -28.32,-1.12 -51.72,-20.4 -59.25,-46.65 -1.47,0.12 -67.37,-392.13 -67.37,-392.13 l 124.37,2.15 c 30.29,1.43 54.61,23.58 60.13,52.57 16.55,127.95 61.18,383.73 61.18,383.73 l -119.06,0.33" /><path
       id="path52"
       style="fill:#56555a;fill-opacity:1;fill-rule:nonzero;stroke:none"
       d="m 3170.33,2081.73 v -0.55 c -31.15,-0.16 -56.66,-22.71 -62.41,-52.22 l -7.37,-44.34 h 167.12 l 17.54,97.11 h -114.88" /><path
       id="path54"
       style="fill:#56555a;fill-opacity:1;fill-rule:nonzero;stroke:none"
       d="m 3694.16,1934.67 c -59.44,0 -110.1,-18.84 -150.01,-71.38 0.15,0.24 -0.08,2.63 -0.08,2.63 l 7.57,58.24 h -119.25 c -30.72,-1.2 -55.46,-23.67 -60.7,-53.22 -19.2,-128.16 -61.48,-383.41 -61.48,-383.41 h 120.83 c 31.59,1.51 57,25.49 60.86,56.48 h 0.1 c 9.08,61.34 23.19,142.84 32.55,204.74 6.05,39.61 34.01,79.64 76.87,79.64 38.45,0 46.92,-34.17 42.86,-65.7 -5.81,-46.29 -43.02,-275.16 -43.02,-275.16 h 111.98 c 31.34,1.51 56.64,25.25 60.82,55.84 20.63,125.16 46.21,253.4 48.68,273.12 10.87,85.83 -50.67,118.18 -128.58,118.18" /><path
       id="path56"
       style="fill:#56555a;fill-opacity:1;fill-rule:nonzero;stroke:none"
       d="m 2912.32,1624.16 c -46.59,-11 -93.55,-19.37 -140.93,-19.37 -99.78,0 -169.15,53.38 -155.61,160.13 11.17,87.54 81.82,189.03 229.68,189.03 46.32,0 90.64,-10.44 133.86,-21.03 l 26.52,132.32 c -50.58,8.76 -117.86,16.49 -170.4,16.49 -196.9,0 -376.6,-105.87 -403.59,-318.64 -28.95,-228.32 156.23,-286 293.53,-286 54.23,0 110,5.18 164.35,13.06 2.65,15.86 11.87,70.51 22.59,134.01" /><path
       id="path58"
       style="fill:#56555a;fill-opacity:1;fill-rule:nonzero;stroke:none"
       d="m 4151.52,1842.53 c 47.23,0 67.16,-29.43 59.86,-86.53 h -158.37 c 10.32,42.36 45.45,86.53 98.51,86.53 z m 136.1,-230.48 c -46.37,-12.59 -95.15,-24.78 -141.64,-24.78 -57.84,0 -111.61,24.53 -102.89,92.65 h 301.02 c 7.16,21.99 11.63,43.82 14.46,65.8 15.45,121.51 -54.74,188.95 -198.29,188.95 -232.78,0 -276.12,-196.91 -282.01,-243.28 -21.88,-172.31 94.39,-214.3 233.57,-214.3 50.66,0 102.89,6.05 154.03,16.49 7.38,39.51 14.55,78.95 21.75,118.47" /><path
       id="path60"
       style="fill:#56555a;fill-opacity:1;fill-rule:nonzero;stroke:none"
       d="m 5500.69,1842.53 c 47.24,0 67.16,-29.43 59.87,-86.53 h -158.33 c 10.31,42.36 45.45,86.53 98.46,86.53 z m 136.11,-230.48 c -46.37,-12.59 -95.12,-24.78 -141.69,-24.78 -57.71,0 -111.57,24.53 -102.84,92.65 h 301.02 c 7.16,21.99 11.71,43.82 14.41,65.8 15.54,121.51 -54.73,188.95 -198.2,188.95 -232.79,0 -276.2,-196.91 -282.1,-243.28 -21.83,-172.31 94.4,-214.3 233.58,-214.3 50.67,0 102.93,6.05 154.07,16.49 7.38,39.51 14.58,78.95 21.75,118.47" /><path
       id="path68"
       style="fill:url(#linearGradient66);fill-opacity:1;fill-rule:evenodd;stroke:none"
       d="m 1334.82,1587.03 215.51,-192.8 c 276.06,-69.38 471.78,-47.08 523.7,53.15 12,23.97 17.23,48.11 15.88,72.33 -169.95,-76.48 -421.51,-54.09 -755.09,67.32 v 0" /><path
       id="path76"
       style="fill:url(#linearGradient74);fill-opacity:1;fill-rule:evenodd;stroke:none"
       d="m 2135.1,2047.32 c -27.33,-75.09 -137.24,-99.15 -329.84,-71.94 l 145.53,-132.48 c 161.27,-3.79 234.92,40.87 220.66,133.67 -1.89,25.18 -13.83,48.92 -36.35,70.75 v 0" /><path
       id="path84"
       style="fill:url(#linearGradient82);fill-opacity:1;fill-rule:evenodd;stroke:none"
       d="m 1861.59,2404.3 c -142.46,123.64 -266.44,192.35 -371.98,206.53 -26.37,0 -52.18,-15.59 -52.18,-43.66 0,-91.41 228.26,-183.92 342.44,-183.92 26.8,-1.66 63.79,4.6 81.72,21.05" /><path
       id="path96"
       style="fill:url(#linearGradient94);fill-opacity:1;fill-rule:evenodd;stroke:none"
       d="m 1794.77,1852.61 -190.09,169.65 c -329.85,108.19 -668.649,343.9 -604.18,459.85 -46.98,6.27 -86.199,-22.86 -117.246,-88.51 -42.606,-151.9 477.816,-480.76 911.516,-540.99 v 0" /><g
       id="g98"><g
         clip-path="url(#clipPath104)"
         id="g100"><path
           id="path114"
           style="fill:url(#linearGradient112);fill-opacity:1;fill-rule:nonzero;stroke:none"
           d="m 2170.01,1978.13 c 26.93,-116.4 -2.89,-332.07 -53.63,-441.61 -19.08,-29.63 -86.12,-75.36 -236.07,-75.36 -431.87,0 -1213.747,345.73 -1213.747,625.43 24.437,105.68 127.386,274.29 262.992,372.76 -28.973,-25.89 -36.121,-53.2 -36.121,-74.73 0,-216.53 662.656,-535.55 1060.966,-535.55 95.94,0 215.61,17.96 215.61,129.06" /></g></g><g
       id="g116"><g
         clip-path="url(#clipPath122)"
         id="g118"><path
           id="path136"
           style="fill:url(#linearGradient134);fill-opacity:1;fill-rule:nonzero;stroke:none"
           d="m 1767.34,2530.19 c 196,-101.03 324.86,-286.22 376.06,-447.66 9.9,-96.55 -75.22,-130.73 -194.72,-130.73 -369.09,0 -971.203,298.43 -971.203,492.57 0.359,21.75 10.957,43.76 32.223,66.76 186.82,119.56 437.46,127.25 538.98,88.13 -48.91,13.7 -100.52,1.67 -100.52,-34.47 0,-52.34 187.46,-171.19 344.66,-171.19 14.53,0 70.82,-0.89 70.82,37.39 0,31.07 -48.28,71.54 -96.3,99.2" /></g></g><g
       id="g138"><g
         clip-path="url(#clipPath144)"
         id="g140"><path
           id="path158"
           style="fill:url(#linearGradient156);fill-opacity:1;fill-rule:nonzero;stroke:none"
           d="m 639.633,1991.43 c -18.66,-166.78 304.664,-377 651.647,-505.9 321.45,-119.81 663.66,-170 772.64,-51.06 -211.78,-322.33 -545.19,-416.65 -837.59,-345.99 -363.053,87.39 -662.615,428.53 -586.697,902.95" /></g></g><path
       id="path160"
       style="fill:#ffffff;fill-opacity:1;fill-rule:evenodd;stroke:none"
       d="m 1906.52,2424.63 c -4.41,3.05 -8.86,6.76 -9.98,8.33 -1.12,1.59 -0.4,4.52 4.06,1.47 l 19.58,-12.69 c 4.28,-3.04 10.22,-9.25 12.93,-13.83 0,0 0.97,-1.64 2.84,-3.61 -1.87,1.97 -29.43,20.33 -29.43,20.33 z m 11.89,-21.69 c -4.48,2.97 -9.21,9.2 -10.7,13.61 l -1.35,3.66 c 0,0 35.93,-25.41 37.52,-27.68 1.67,-2.23 7.97,-11.77 7.97,-13.82 0,2.05 -33.44,24.23 -33.44,24.23 z m 3.05,-17.28 c -4.35,3.22 -7.53,7.59 -7.43,9.44 0.23,1.87 1.77,2.66 6.05,-0.54 l 26.23,-19.8 c 4.24,-3.14 8.03,-8.05 8.45,-10.85 0.29,-2.85 -2.89,-2.33 -6.87,0.97 z m -5.86,-13.55 c -4,3.65 -6.57,7.5 -5.67,8.81 0.75,1.05 5.81,1.03 9.93,-2.49 l 35.87,-29.36 v -3.9 c -1.75,-3.61 -6.53,-3.51 -10.31,0.14 z m -10.26,-14.04 c -3.7,3.73 -4.38,8.71 -1.17,11.18 l 36.65,-31.35 c 3.92,-3.61 5.91,-8.01 4.38,-9.92 -1.6,-1.83 -7.83,-2.05 -11.62,1.79 z m 23.37,-43 c -4.76,-1.91 -11.32,-0.16 -14.68,3.91 l -25.02,28.68 c -3.38,3.98 -4.92,7.9 -3.15,8.56 1.88,0.76 8.79,-0.08 12.61,-3.94 l 33.6,-34.82 z m -26.08,-8.92 c -5.27,-1.12 -12.21,1.36 -15.33,5.58 l -23.03,29.83 c -3.32,4.21 -4.24,8.11 -2.11,8.57 2.29,0.63 11.46,-0.56 14.72,-4.82 0,0 29.48,-37.77 31.53,-37.77 z m -26.25,-4.9 c -1.83,0 -17.17,-1.23 -17.17,-1.23 0,1.99 -25.05,39.23 -25.05,39.23 -2.92,4.4 -2.92,8.07 0.26,7.93 3.05,-0.06 12.05,-3.55 15.08,-7.99 z m -37.56,-1.47 c 0,0 -15.81,1.95 -21.83,1.95 l -17.8,36.64 c -2.31,4.84 -0.48,8.75 4.16,8.75 4.56,0 10.52,-3.76 13.27,-8.29 0,0 22.2,-37.06 22.2,-39.05 z m -294.84,88.23 c -3.27,-4.26 -9.76,-5.62 -14.56,-3.23 0,0 -14,7.75 -15.97,7.75 l 22.96,24.48 c 3.77,3.82 10.14,5.35 14.16,3.22 4.3,-2.09 10.78,-10.03 7.63,-14.4 z m -47,22.84 c -3.95,-3.66 -11.02,-4.24 -15.62,-1.49 l -5.24,4.4 c -4.62,2.53 -4.87,7.35 -0.63,10.56 l 21.07,14.51 c 4.4,3.13 11.41,3.69 15.83,1.3 4.27,-2.39 8.35,-9.16 4.28,-12.67 z m -40.45,26.19 c -4.52,-2.73 -8.73,-5.44 -9.24,-6.05 -0.5,-0.48 -4.42,1.65 -8.71,4.89 l -5.4,3.55 c -4.4,2.93 -4.12,7.33 0.58,9.72 l 27.94,13.62 c 4.87,2.29 11.85,2.09 15.44,-0.35 3.72,-2.54 6.89,-8.91 2.33,-11.64 z m -38.82,24.52 c -4.88,-2.13 -10.91,-2.21 -13.44,-0.16 -2.6,2.07 -7.85,10.62 -2.81,12.43 l 30.61,11.09 c 5.02,1.81 11.13,1.65 13.64,-0.12 2.57,-1.83 6.45,-9 1.45,-11.09 z m -30.57,26.01 c -5.28,-1.65 -11.2,-1 -13.5,1.4 -2.26,2.52 -3.81,10.87 1.43,12.04 l 34.21,7.87 c 5.12,1.12 10.56,0.84 12.05,-0.82 1.36,-1.61 2.2,-9.06 -2.82,-10.69 z m 12.7,42.08 c 5.2,0.74 10.96,-0.16 12.39,-2.01 1.62,-1.85 1.62,-7.9 -3.72,-8.8 l -36.49,-5.74 c -5.3,-0.99 -10.63,-0.41 -11.95,1.28 -1.37,1.55 -2.07,9.42 3.23,10.22 z m 4.33,11.49 -49.08,-5.04 c -5.37,-0.49 -10.61,0.98 -11.83,3.41 -1.21,2.55 2.33,6.95 7.49,7.51 0,0 31.85,2.95 49.67,2.95 0,0 2.57,-6.25 3.75,-8.83 z m -11.51,43 c 5.21,-0.18 8.8,-1.53 7.76,-3.07 -1.05,-1.51 -6.35,-4.69 -11.59,-4.59 l -37.96,1.33 c -5.28,-0.12 -8.66,2.07 -7.49,4.8 z m 9.84,12.69 c 5.29,-0.56 8.86,-1.65 7.84,-2.39 -0.77,-0.8 -8.4,-4.56 -13.9,-4.24 l -35.79,2.49 c -5.28,0.44 -7.85,2.55 -5.69,4.77 2.16,2.14 8.34,3.63 13.61,3.34 z m 18.55,5.58 c -1.65,-0.86 -7.27,-1.18 -12.62,-0.72 l -40.97,4.26 c 2.17,1.32 3.19,1.63 3.19,1.63 4.96,1.68 13.52,2.62 18.98,2.14 l 28.08,-2.73 c 5.26,-0.6 4.98,-3.65 3.34,-4.58 z m 19.7,10.89 c 4.96,-1.19 6,-2.47 2.29,-3.1 -3.68,-0.54 -13.08,-0.34 -18.24,0.63 l -15.52,2.73 c -5.29,0.68 -5.29,1.69 0.1,2.23 l 3.29,0.26 9.28,0.94 c 1.14,0.14 14,-2.75 18.8,-3.69 z m -101.67,-48.81 c -0.08,2.41 4.18,4.6 9.5,4.76 l 40.01,0.45 c 5.42,0.03 9.76,-1.57 9.76,-3.58 0,-1.93 -4.34,-5.71 -9.76,-5.91 l -39.83,-1.68 c -5.18,-0.38 -9.68,3.37 -9.68,5.96 z m 280.07,-206.18 c -1.56,-5.12 0.49,-10.59 4.93,-12.23 4.28,-1.61 18.7,-2.51 19.7,2.55 l 3.65,20.62 c 1.29,5.21 -1.08,10.77 -5.28,12.39 -4.17,1.69 -14.84,0.89 -16.61,-4.17 z m 66.99,-31.96 c 4.82,-1.72 8.73,1.41 8.51,6.73 l -0.34,23.84 c -0.08,5.3 -3.61,10.65 -7.61,11.79 -4.12,1.13 -15.45,-0.3 -15.89,-5.68 l -2.63,-22.02 c -0.3,-5.32 13.12,-13.03 17.96,-14.66 z m 49.87,-12.75 c 4.96,-1 8.29,2.27 7.3,7.61 l -6.02,24.67 c -1.25,5.12 -5.3,10.26 -9.26,11.16 -3.85,1.09 -12.57,-0.48 -11.85,-5.78 l 3.04,-24.34 c 0.78,-5.35 11.78,-12.16 16.79,-13.32 z m 48.98,-8.16 c 5.4,-1 7.98,2.3 5.99,7.16 l -11.11,27.57 c -2.11,4.74 -6.79,9.5 -10.44,10.24 -3.72,0.71 -12.55,-1.62 -10.81,-6.6 l 9.02,-26.82 c 1.65,-4.94 6.71,-9.65 11.08,-10.28 4.34,-0.56 6.27,-1.27 6.27,-1.27 z m -190.64,62.39 c -2.07,-4.88 -7.53,-7.11 -12.07,-5 -4.52,1.99 -15.87,9.4 -13.09,14.01 l 10.8,19.02 c 2.55,4.63 7.83,7.32 11.83,5.93 4.08,-1.3 13,-9.7 10.91,-14.6 z m 520.22,-589.47 c -4.77,-2.2 -8.73,0.33 -8.73,5.66 l -1.59,41.91 c -0.2,5.25 3.36,10.75 7.96,12.11 4.59,1.47 15.5,1.07 15.66,-4.19 l 1.69,-37.96 c 0,-5.38 -4.1,-11.51 -8.84,-13.78 z m -196.16,34.02 c 5.28,-0.35 9.4,-4.94 9.04,-10.27 l -2.41,-39.9 c -0.58,-5.25 -5.26,-9.39 -10.46,-9.16 0,0 -27.98,1.52 -35.99,1.52 l 5.24,49.69 c 0.56,5.26 5.18,9.4 10.58,9 z m -83.05,7.41 c 0,-11.83 -4.78,-49.61 -4.78,-49.61 -0.56,-5.42 -5.5,-9.24 -10.88,-8.6 l -31.96,3.66 c -5.38,0.72 -9.1,5.5 -8.39,10.75 l 7.13,40.14 c 0.8,5.34 5.82,9 11.13,8.28 z m -325.2,76.24 c 5.04,-1.79 7.75,-7.33 5.96,-12.26 l -13.13,-37.13 c -1.79,-4.9 -7.49,-7.73 -12.6,-6.25 l -38.71,12.07 c -5.19,1.59 -7.76,6.93 -5.97,11.91 l 15.08,39.19 c 1.85,4.9 7.45,7.53 12.47,5.54 z m -110.19,40.15 c 4.83,-2.07 7.18,-7.84 5.37,-12.82 l -14.88,-37.29 c -1.87,-4.94 -7.38,-7.36 -12.42,-5.25 l -37.35,15.85 c -4.89,2.31 -7.07,8.13 -4.72,12.91 l 17.17,37.04 c 2.23,4.82 8.09,7.09 13.03,5.18 z m -104.81,47.33 c 5.02,-2 7.07,-7.73 4.77,-12.44 l -19.43,-37.75 c -2.15,-4.82 -7.84,-6.89 -12.6,-4.54 l -35.87,17.04 c -4.88,2.39 -6.73,8.17 -4.28,12.87 l 19.24,37.17 c 2.45,4.85 8.36,6.76 13.18,4.58 z m -118.42,2.7 c -2.73,-4.54 -8.68,-6.37 -13.36,-3.82 l -30.49,18.16 c -4.69,2.71 -6.16,8.61 -3.33,13.15 l 21.27,34.89 c 2.79,4.46 9.04,5.98 13.56,3.27 l 28.62,-17.85 c 4.68,-2.67 6.32,-8.68 3.65,-13.3 z m -94.3,54.89 c -2.95,-4.46 -8.99,-5.49 -13.28,-2.43 l -25.54,18.57 c -4.4,3.06 -5.42,8.96 -2.55,13.38 l 22.74,33.42 c 2.93,4.38 8.99,5.61 13.43,2.63 l 25.13,-16.97 c 4.65,-2.95 5.96,-9 2.93,-13.46 z m -90.624,118.74 c 3.489,4.15 9.664,4.75 13.784,1.32 l 18.56,-15.18 c 4.2,-3.5 4.9,-9.84 1.79,-14.1 l -24.15,-33.58 c -3.073,-4.34 -9.007,-5.14 -13.128,-1.75 l -28.164,23.42 c 0,1.99 31.308,39.87 31.308,39.87 z m -58.593,-2.78 c -3.504,-4.07 -9.301,-4.34 -13.106,-0.6 l -13.941,13.9 c -3.805,3.79 -3.906,10.16 -0.438,14.26 l 26.61,30.79 c 3.445,4.06 9.5,4.15 13.34,0.4 l 20.757,-20.87 c -1.894,0 -33.222,-37.88 -33.222,-37.88 z m -50.989,57 c -3.64,-3.95 -9.199,-3.67 -12.289,0.72 l -8.261,12.11 c -3.067,4.14 -2.805,10.91 0.855,14.73 l 28.063,29.4 c 3.668,3.78 9.203,3.35 12.211,-1.12 l 8.605,-11.79 c 3.16,-4.38 2.684,-10.91 -0.98,-14.81 z m -42.101,44.21 c 0,1.96 -6.133,16.65 -6.133,16.65 -2.129,4.86 -0.777,12.11 2.871,16.01 l 26.25,27.41 c 3.66,3.82 8.738,3.15 11.348,-1.51 0,0 7.133,-13.15 7.133,-15.18 z m 20.613,107.79 c 3.887,3.76 6.574,3.19 6.094,-1.24 -0.613,-4.3 -2.207,-18.75 -6.094,-22.52 l -29.633,-27.87 c -3.687,-3.74 -6.715,-2.46 -6.715,2.91 v 4.23 c 0,5.35 3.028,12.88 6.715,16.58 z m -19.457,-2.31 c -3.863,-3.71 -7.406,-6.83 -7.848,-6.97 -0.437,-0.22 1.2,3.06 3.766,7.75 0,0 3.621,7.29 6.133,11.81 2.652,4.58 8.027,11.07 12.012,14.7 l 20.847,17 c 3.906,3.47 5.5,3.53 3.43,0.36 -2.211,-3.31 -9.242,-16.81 -13.188,-20.39 z M 1604.9,1804.93 c 5.14,-1.63 10.3,1.24 11.43,6.54 l 10.98,38.44 c 1.42,5.17 -1.61,10.47 -6.73,11.78 l -36.65,10.76 c -5.04,1.52 -10.49,-1.59 -11.99,-6.61 l -11.05,-37.21 c -1.33,-5.17 1.79,-10.83 6.79,-12.42 z m 110.4,-26.53 c 5.18,-1.15 10.28,2.24 11.19,7.46 l 8.33,40.22 c 0.87,5.19 -2.49,10.2 -7.85,11.24 l -34.13,6.45 c -5.16,1 -10.56,-2.55 -11.94,-7.72 l -9.2,-38.4 c -1.27,-5.26 2.07,-10.36 7.27,-11.39 z m 282.1,-24.47 c 5.31,0.31 9.88,4.94 10.19,10.35 l 1.16,39.9 c 0.16,5.25 -4.04,9.28 -9.38,8.92 l -20.08,-0.48 c -5.41,-0.48 -9.77,-5.18 -10.06,-10.51 l -1.11,-39.9 c -0.28,-5.25 3.9,-9.64 9.2,-9.64 z m 69.39,10.75 c 5.11,0.96 9.44,6.06 9.44,11.48 v 39.77 c 0,5.41 -4.33,8.96 -9.44,7.97 l -12.57,-2.27 c -5.32,-1.04 -9.6,-6.14 -9.6,-11.56 v -39.81 c 0,-5.34 4.28,-9 9.6,-8.05 z m 90.33,104.43 c 2.26,3.26 4.33,1.67 4.76,-3.67 l 2.71,-36.01 c 0.3,-5.25 -1.33,-12.78 -3.42,-16.57 -2.27,-3.74 -11.93,-8.52 -11.93,-3.26 l -1.53,37.95 c -0.26,5.39 7.27,18.37 9.41,21.56 z m 21,-20.2 c 0.32,11.83 -0.98,55.25 -0.98,55.25 -0.1,5.73 -0.66,9.24 -1.15,5.49 -0.6,-3.9 -2.75,-19.2 -2.43,-24.61 l 1.39,-32.1 0.96,-10.52 c 0,-0.56 1.39,3.38 2.21,6.49 z M 1022.73,1211.32 c -4.76,2.07 -9.6,8.37 -10.78,13.47 l -3.32,24.38 c -0.34,5.26 3.2,7.56 7.88,5.02 l 22.45,-10.52 c 4.66,-2.47 8.33,-8.84 8.12,-14.26 l 1.06,-19.83 c 0.12,-5.27 -3.74,-7.89 -8.62,-5.66 z m 561.76,-108.5 c 9.86,0 23.96,1.12 23.96,1.12 5.38,0.39 5.64,-0.64 0.6,-2.56 l -51.13,-17.04 c -5.1,-1.83 -15.91,-4.38 -21.19,-4.62 l -5.66,-0.09 c -5.31,-0.23 -5.65,1.04 -0.65,2.88 z m -82.57,-20.95 c -5.02,-1.84 -13.51,-3.1 -18.86,-2.71 l -19.2,1.04 c -5.36,0.47 -5.56,2.31 -0.54,4.14 l 45.41,16.17 c 4.72,2.31 12.98,4.07 18.42,3.82 l 14.12,-0.96 c 5.34,-0.15 5.78,-2.46 1.06,-5.09 z m -103.87,6.06 c -5.24,0.71 -5.5,3.18 -0.61,5.33 l 32.34,16.97 c 4.64,2.39 9.02,4.31 9.58,4.31 0.58,0 5.3,-0.57 10.67,-1.44 l 19.74,-3.1 c 5.26,-0.81 5.52,-3.28 0.66,-5.27 l -47.82,-19.68 c -3.94,0 -24.56,2.88 -24.56,2.88 z m -10.69,36.32 c 5.3,-0.95 5.89,-3.98 1.47,-7.01 l -28.64,-16.09 c -4.74,-2.32 -12.89,-3.43 -18.14,-2.23 l -16.62,3.59 c -5.17,1.27 -5.87,4.61 -1.21,7.49 l 20.32,14.57 c 4.06,3.35 11.81,5.34 17.03,4.46 z m -128.68,22.71 c 3.42,4.3 10.26,6.53 15.41,5.1 l 26.57,-7.26 c 5.18,-1.51 6.22,-5.58 2.25,-9.24 l -17.15,-14.58 c -3.98,-3.42 -11.53,-5.33 -16.75,-4.06 l -19.89,6.22 c -5.14,1.59 -6.45,5.97 -2.85,9.95 z m -45.57,25.57 c 5.08,-1.52 6.89,-6.54 3.86,-10.91 l -11.75,-16.82 c -3.13,-4.37 -9.83,-6.37 -14.8,-4.62 l -19.27,6.78 c -5.04,1.82 -7.25,7.17 -4.98,11.94 l 8.38,17.45 c 2.29,4.94 8.18,7.25 13.18,5.34 z m -87.71,32.74 c 4.92,-1.99 7.58,-7.88 5.99,-12.99 l -5.06,-16.64 c -1.43,-5.11 -6.81,-7.66 -11.73,-5.66 l -19.52,7.41 c -4.96,2.07 -8.56,8.12 -8.34,13.38 l 2.37,20.08 c 0.82,5.01 5.62,7.81 10.49,5.74 z m -166.744,79.59 c 4.641,-2.55 9.442,-8.77 10.676,-13.95 l 5.957,-26.69 c 1.629,-4.93 -0.84,-7.01 -5.461,-4.54 l -16.152,9.09 c -4.637,2.63 -9.953,8.84 -11.891,13.94 l -9.914,30.99 c -1.496,5.18 1.055,7.09 5.672,4.46 z m -64.09,0.16 c -4.503,2.94 -10.078,9.32 -12.449,14.1 l -17.683,37.44 c -2.094,4.86 0,6.53 4.437,3.75 l 17.266,-11.55 c 4.386,-3.11 9.289,-9.64 10.859,-14.74 l 14.219,-34.5 c 2.129,-4.94 0.461,-6.21 -3.844,-3.03 z m -41.503,33.54 c 2.644,-4.71 1.648,-5.34 -2.415,-1.76 l -14.496,11.48 c -4.3,3.02 -9.722,9.56 -11.754,14.5 l -15.968,35.6 c -2.117,4.78 -0.164,6.46 4.183,3.43 l 9.832,-6.53 c 4.266,-3.27 9.684,-9.72 11.993,-14.58 z m -44.473,35.05 c -1.934,0 -13.352,12.59 -13.352,12.59 -3.543,3.9 -8.718,10.99 -11.211,15.61 l -24.14,44.38 c -2.528,4.54 -1.805,5.17 1.695,1.11 l 8.523,-7.65 c 3.688,-3.75 8.668,-10.76 10.778,-15.53 0,0 11.652,-25.18 27.707,-50.51 z m 940.03,-72.18 c 5.32,-0.48 12.03,2.87 14.9,7.34 l 23.88,36.88 c 3.06,4.45 1.17,8.36 -4.27,8.52 l -30.22,0.87 c -5.39,0.33 -12.02,-3.18 -14.75,-7.8 l -23.59,-35.77 c -3.01,-4.38 -0.96,-8.45 4.32,-8.93 z m -98.68,8.05 c 5.27,-0.56 12.02,2.7 14.87,7.17 l 22.87,36.57 c 2.56,4.62 0.42,8.84 -4.84,9.56 l -35.41,5.25 c -5.28,0.88 -11.63,-2.15 -14.16,-6.93 l -22.25,-38.4 c -2.57,-4.54 -0.46,-8.76 4.92,-9.39 z m -337.27,81.26 c 5.1,-1.92 10.84,0.71 12.87,5.73 l 17.54,36.96 c 2.12,4.87 -0.32,10.29 -5.32,12.03 l -42.37,15.39 c -4.91,1.99 -10.46,-0.41 -12.44,-5.5 l -14.85,-39.12 c -1.91,-4.86 0.69,-10.28 5.85,-11.79 z m -646.404,399.12 c -3.028,4.46 -5.203,12.25 -4.641,17.51 l 5.598,44.45 c 0.574,5.34 3.757,6.13 6.949,1.92 l 7.668,-10.76 c 3.527,-3.95 5.894,-11.51 5.332,-16.89 l -4.399,-47.7 c -0.277,-5.42 -3.246,-6.29 -6.589,-2.15 z m -27.246,45.15 c -2.332,4.78 -3.965,13.11 -3.305,18.4 l 4.043,43.82 c 0.515,5.34 3.047,5.86 5.555,1.32 2.531,-4.58 6.074,-14.66 5.539,-20.12 l -5.34,-46.76 c -0.457,-5.3 -2.668,-6.22 -4.903,-1.76 -2.07,4.3 -1.589,5.1 -1.589,5.1 z m 104.359,-62.44 c 0,-3.82 -6.57,-53.53 -6.57,-53.53 -0.758,-5.26 -4.543,-6.77 -8.485,-3.03 l -15.594,16.25 c -3.765,3.66 -6.292,11.08 -5.656,16.42 l 5.035,44.93 c 0.661,5.16 4.301,6.39 7.989,2.63 z m 64.254,-52.9 c 4.258,-3.18 7.07,-10.19 6.211,-15.37 l -7.887,-44.53 c -0.758,-5.42 -4.664,-6.78 -8.824,-3.43 l -22.043,18.48 c -4.168,3.51 -6.992,10.68 -6.438,15.94 l 6.696,42.61 c 0.812,5.42 5,6.86 9.218,3.68 z m 87.43,-62.45 c 4.562,-2.87 7.308,-9.32 6.132,-14.58 l -9.754,-42.22 c -1.082,-5.18 -5.578,-7.17 -10.136,-4.22 l -27.188,18.47 c -4.406,2.95 -7.23,9.81 -6.437,14.98 l 7.949,43.1 c 0.976,5.19 5.34,6.93 9.68,3.91 z m 98.507,-59.68 c 4.7,-2.62 7.35,-8.83 5.977,-14.01 l -10.817,-40.56 c -1.332,-5.17 -6.273,-7.24 -10.992,-4.69 l -32.484,18.16 c -4.563,2.71 -7.367,8.93 -6.176,14.34 l 11.57,49.79 z m 102.11,-107.93 c -1.55,-5.19 -6.79,-7.5 -11.69,-5.35 l -35.85,17.21 c -4.76,2.39 -7.49,8.68 -6.21,13.87 l 10.79,38.63 c 1.42,5.02 6.64,7.33 11.45,5.02 l 37.58,-17.36 c 4.94,-2.24 7.63,-8.29 6.2,-13.47 z m 122.51,0.23 c 5.02,-2.07 7.33,-7.73 5.5,-12.74 l -14.84,-37.05 c -1.88,-5.1 -7.53,-7.56 -12.53,-5.74 l -39.42,16.25 c -4.76,2.24 -7.23,8.05 -5.37,13.07 l 13.14,37.21 c 1.76,4.94 7.27,7.56 12.21,5.42 z M 1390.46,1347 c -5.05,1.43 -7.38,6.61 -5.05,11.38 l 17.58,36.81 c 2.21,4.71 8.3,7.57 13.45,6.06 l 40.32,-11.39 c 5.09,-1.36 7.51,-5.34 5.32,-8.53 l -17.42,-36.88 c -2.36,-4.62 -4.3,-9.08 -4.3,-9.72 0,-0.4 -6.16,-1.6 -11.22,-0.09 z m 114.62,-31.15 c -5.08,1.27 -7.4,6.05 -4.74,10.84 l 20.4,38.15 c 2.57,4.71 8.78,7.57 14.04,6.38 l 38.18,-9.64 c 5.36,-1.04 7.43,-5.9 4.9,-10.44 l -20.2,-36.56 c -2.47,-4.55 -9,-7.34 -14.3,-6.3 z m 343.82,-25.49 c -3.13,-4.23 -10.08,-8.05 -15.36,-8.29 l -21.98,-1.04 c -5.48,-0.23 -7.31,3.11 -4.12,7.41 l 24.33,35.45 c 3.05,4.39 9.9,8.45 15.18,9.08 l 24.1,2.24 c 5.33,0.31 7.3,-3.03 4.24,-7.41 z m 70.63,12.58 c -3.07,-4.22 -9.83,-8.6 -15.16,-9.63 l -14.1,-3.12 c -5.14,-0.96 -6.92,1.84 -3.79,6.22 l 28.1,37.6 c 3.09,4.14 9.88,8.85 15.1,10.04 l 14.74,3.27 c 5.12,1.19 6.97,-1.2 3.76,-5.59 z m 57.93,46.93 c 3.38,4.22 9.5,9.08 13.84,10.67 4.31,1.59 11.12,1.59 7.83,-2.63 l -27.21,-36.89 c -3.36,-4.14 -10.13,-9.24 -15.05,-11.39 l -12.99,-5.34 c 0,1.92 33.58,45.58 33.58,45.58 z M 707.289,2168.61 c 2.473,4.82 4.024,4.34 3.469,-0.92 l -0.996,-10.43 c 0,-5.26 -1.852,-13.63 -4.043,-18.41 l -21.692,-46.52 c 0,11.79 1.161,23.98 1.161,23.98 0.515,5.18 2.843,13.38 5.171,18.32 z m -1.293,-114.84 c -2.191,-4.9 -6.172,-5.06 -8.844,-0.4 l -2.664,6.62 c -2.453,4.78 -2.453,12.58 -0.246,17.44 l 17.352,37.64 c 2.25,4.9 5.972,4.9 8.445,0.28 l 3.582,-7.81 c 2.551,-4.65 2.609,-12.42 0.418,-17.24 z m 34.418,9.48 c 2.406,4.7 6.891,5.14 10.098,0.8 l 8.605,-13.39 c 3.301,-4.22 4.004,-11.63 1.707,-16.41 l -17.683,-37.64 c -2.051,-4.9 -6.133,-5.3 -9.082,-0.75 l -10.196,14.21 c -2.89,4.51 -3.429,12.19 -1.273,17.01 z m 75.121,-74.68 c 3.766,-3.67 4.899,-10.8 2.653,-15.58 l -17.684,-37.76 c -2.074,-4.82 -7.113,-5.9 -11.016,-2.31 l -17.41,18.68 c -3.426,4.06 -4.34,11.47 -1.973,16.21 l 16.415,34.66 c 2.41,4.89 7.25,5.73 11.035,2.07 z m 58.535,-113.33 c -1.968,-4.86 -7.449,-6.22 -11.73,-3.11 l -23.977,19.44 c -4.066,3.46 -5.398,10.36 -3.07,15.14 l 16.191,34.89 c 2.371,4.54 7.829,5.73 11.973,2.39 l 23.18,-17.29 c 4.183,-3.11 6.015,-9.68 3.722,-14.58 z m 100.039,-12.63 c 4.563,-2.82 6.395,-9.28 4.082,-14.3 l -15.613,-35.45 c -2.148,-4.9 -7.562,-6.33 -11.832,-3.26 l -29.433,19.75 c -4.262,3.03 -6.153,9.68 -3.84,14.58 l 15.808,34.62 c 2.211,4.74 7.614,6.25 11.973,3.38 z m 100.461,-57.79 c 4.6,-2.71 6.83,-8.85 4.84,-13.79 l -14.58,-37.26 c -1.93,-4.94 -7.47,-6.93 -12.07,-4.3 l -36.41,19.99 c -4.58,2.71 -6.73,8.9 -4.52,13.77 l 15.9,35.45 c 2.21,4.89 7.78,7.01 12.54,4.46 z m 60.17,-43.4 c 1.89,4.93 7.45,7 12.34,4.7 l 39.94,-18.89 c 4.76,-2.55 6.89,-8.51 4.76,-13.38 l -16.09,-37.59 c -2.08,-4.87 -7.81,-6.86 -12.59,-4.63 l -38.2,18.64 c -4.78,2.16 -7.19,8.12 -5.34,12.91 z m 168.29,-66.21 c 4.9,-2.07 7.37,-7.96 5.62,-12.98 0,0 -16.37,-42.15 -16.37,-46.21 l -52.08,20.16 c -4.99,1.99 -7.45,7.64 -5.44,12.51 l 15.87,38.72 c 1.91,4.93 7.69,7.4 12.59,5.33 z m 58.89,-86.43 c -5.11,1.83 -7.9,7.41 -6.17,12.5 l 14.26,39.13 c 1.91,5.25 7.41,7.72 12.31,5.88 l 43.08,-17.05 c 4.94,-1.9 7.54,-7.24 5.69,-12.34 l -14.43,-38 c -1.68,-5.02 -7.28,-7.64 -12.28,-5.97 z m 121.83,-39.67 c -5.1,1.67 -7.72,6.92 -5.85,11.94 l 14.46,38.09 c 1.93,4.94 7.59,7.8 12.7,6.21 l 42.63,-12.27 c 5.05,-1.43 7.62,-6.69 5.69,-11.71 l -14.82,-39.12 c -1.83,-4.94 -7.52,-7.72 -12.69,-6.21 z m 345.49,-67.81 c -5.29,0.25 -8.2,4.55 -6.45,9.49 l 12.49,38.8 c 1.53,5.17 7.22,9 12.52,8.44 l 29.22,-1.99 c 5.24,-0.56 8.51,-5.1 7.07,-10.28 l -11.41,-37.12 c -1.63,-4.94 -7.27,-8.93 -12.65,-8.85 z m 96.76,-3.1 c -5.36,-0.24 -8.47,3.83 -6.93,9 l 12.44,38.56 c 1.32,5.18 6.89,9.65 12.27,9.88 l 24,2.47 c 5.34,0.48 8.39,-3.35 6.81,-8.28 l -13.88,-40.87 c -1.65,-5.1 -7.35,-9.33 -12.77,-9.56 z m 172.89,88.83 c 4.92,1.91 7.61,-0.56 6.11,-5.58 l -11.97,-38.72 c -1.59,-5.18 -7,-11.06 -11.9,-13.14 -4.74,-1.99 -15.4,-2.07 -13.89,3.02 l 12.35,38.88 c 1.42,5.11 6.83,10.52 11.87,12.11 z m 17.73,-32.98 c -3.67,-3.66 -5.5,-2.71 -3.93,2.39 l 12.13,38.79 c 1.49,5.19 5.68,12.59 9.16,16.49 l 6.18,6.22 c 3.46,4.06 4.26,3.9 2.75,-1.43 l -11.99,-36.73 c -1.94,-5.34 -4.76,-15.38 -8.25,-19.35 z m -450.93,30.35 c 5.28,-1.19 8.08,-6.29 6.43,-11.31 l -13.86,-38.96 c -1.75,-4.94 -7.31,-8.21 -12.55,-7.01 l -39.73,8.05 c -5.3,1.35 -8.1,6.37 -6.43,11.47 l 13.68,40.71 c 1.61,5.1 7.19,8.2 12.33,7.09 z m 91.49,-76.01 c 5.44,-0.46 11.04,3.2 12.65,8.22 l 13.3,39.11 c 1.6,5.1 -1.59,9.72 -6.81,10.28 l -36.06,5.26 c -5.22,0.87 -11.11,-2.48 -12.87,-7.42 l -12.82,-38.95 c -1.72,-5.1 1.35,-10.04 6.48,-10.91 z m 266.21,3.35 c 5.26,0.64 10.97,5.74 12.52,10.68 l 12.15,41.11 c 1.38,5.18 -1.71,8.2 -6.93,6.77 l -14.78,-4.94 c -5.19,-1.27 -10.69,-6.61 -12.11,-11.63 l -12.22,-36.72 c -1.52,-5.02 1.51,-8.62 6.79,-7.66 z m 15.65,493.79 c 5.42,1 8.39,5.98 6.74,11.23 l -14.25,44.5 c -1.45,5.18 -6.17,8.48 -10.57,7.33 -4.36,-1.12 -14.9,-8.21 -13.68,-13.27 l 11.29,-44.45 c 1.27,-5.22 6.37,-8.48 11.27,-7.37 z m -292.23,11.79 c 5.27,-1.03 9.86,2.35 10.37,7.57 l 2.53,43.94 c 0.29,5.21 -3.7,10.51 -8.88,11.39 l -23.3,4.14 c -5.22,1.12 -9.98,-2.31 -10.42,-7.48 l -3.33,-36.18 -0.93,-11.54 c 0,-1.08 4.38,-4.95 9.5,-5.94 z m -89.93,22.27 c 5.08,-1.64 9.75,1.44 10.34,6.65 l 6.75,42.54 c 0.76,5.18 -2.72,10.64 -8,11.91 l -24.7,6.74 c -5.03,1.47 -10.22,-1.56 -11.39,-6.86 l -8.64,-40.58 c -1.18,-5.22 2.12,-10.84 7.29,-12.44 z m 451.79,76.04 c -1.79,4.98 -2.95,11.51 -2.17,14.58 0.76,3.15 5.1,5.54 7.41,0.67 l 15.65,-35.68 c 2.11,-4.86 3.15,-13.11 1.95,-18.32 -1.01,-5.9 -3.72,-6.26 -5.73,-1.24 z m 5.9,-72.29 c -2.77,-2.99 -6.8,-1.52 -8.99,3.38 0,0 -20.55,47.04 -20.55,48.99 0,2.03 4.74,7.18 4.74,7.18 3.72,3.94 8.44,3.26 10.6,-1.72 l 17.64,-39.43 c 2.03,-4.9 -0.6,-15.3 -3.44,-18.4 z m -24.96,-10.52 c 1.85,-4.98 -0.66,-10.68 -5.54,-12.71 0,0 -1.03,-0.04 -4.78,-1.83 -3.86,-1.56 -8.54,1.12 -10.15,6.25 l -14.56,42.46 c -1.69,5.02 -0.1,10.52 3.36,12.35 3.57,1.68 13.91,0.96 15.81,-4.06 z m -123.74,27.24 c 5.34,0.36 10.76,-3.62 12.07,-8.84 l 11.21,-44.21 c 1.16,-5.26 -2.19,-9.84 -7.57,-10.28 l -13.3,-1.04 c -5.32,0.17 -10.66,4.23 -11.71,9.56 0,0 -10.1,47.8 -10.1,53.86 z m -63.24,-0.55 c 5.36,-0.4 10.36,-5.06 11.3,-10.36 0,0 8.32,-51.54 8.32,-53.62 l -27.84,1.52 c -5.4,0.32 -10.22,4.86 -10.89,10.11 l -4.93,43.94 c -0.61,5.3 3.25,9.32 8.63,8.96 z m -71.39,6.13 c 5.25,-0.8 9.71,-5.89 9.83,-11.19 l 2.09,-52.86 c -3.86,0 -31.94,4.38 -31.94,4.38 -5.42,0.72 -9.64,5.9 -9.64,11.12 v 43.61 c 0,5.34 4.22,9.04 9.64,8.25 z m -288.75,64.73 c 1.81,5.06 7.34,7.37 12.25,5.14 l 24.63,-8.57 c 5,-1.67 7.99,-7.29 6.69,-12.47 L 1575.25,2076 c -1.48,-5.1 -6.73,-7.97 -11.81,-6.46 l -28.94,9.8 c -5.08,1.68 -7.71,7.25 -5.94,12.27 z m -59.83,-21.71 c -2.2,-4.7 -8.09,-7.09 -13.03,-5.02 l -28.1,12.67 c -4.98,1.99 -7.13,7.61 -4.82,12.43 l 18.05,35.72 c 2.29,4.91 8.18,7.14 13.18,5.18 l 25.81,-10.79 c 4.98,-2.07 7.21,-7.89 5.12,-12.75 z m -89.63,39.11 c -2.45,-4.69 -8.38,-6.69 -13.24,-4.54 l -27.34,14.1 c -4.91,2.31 -6.6,7.89 -3.69,12.31 l 23.16,35.06 c 2.87,4.42 9.2,6.09 13.89,3.62 0,0 29.05,-15.34 30.85,-15.34 z m -97.89,98.83 c 3.45,4.03 10.02,5.06 14.54,2.27 l 19.56,-11.71 c 4.62,-2.55 5.99,-8.05 2.79,-12.43 l -24.48,-33.45 c -2.95,-4.47 -9.18,-5.98 -13.94,-3.35 l -32.72,18.32 c 7.46,9.16 34.25,40.35 34.25,40.35 z m -65.08,-9.2 c -3.79,-3.75 -10.44,-4.38 -14.86,-1.35 l -19.6,12.74 c -4.3,3.03 -4.86,8.65 -1.17,12.43 l 31.64,29.84 c 3.97,3.62 10.6,4.22 15,1.15 l 25.27,-17.29 c -4.75,-5.97 -36.28,-37.52 -36.28,-37.52 z m -66.68,47.04 c -3.99,-3.54 -10.86,-3.86 -15.06,-0.51 l -15.43,10.75 c -4.21,3.43 -4.21,9 -0.15,12.43 l 34.5,28.97 c 4.14,3.43 10.86,3.43 14.96,0 l 12.79,-10.49 c 4,-3.48 4,-9.4 0,-12.91 z m -64.51,40.91 -23.8,23.72 c 1.93,0 45.51,31.85 45.51,31.85 4.32,3.08 10.81,2.47 14.34,-1.58 l 8.02,-8 c 3.89,-3.51 3.73,-9.02 -0.67,-12.19 0,0 -28.6,-21.33 -43.4,-33.8 z m -35.39,52.62 c -4.47,-2.93 -10.34,-2.19 -13.15,1.69 -2.65,3.79 -7.09,17.03 -2.53,19.84 l 38.72,23.62 c 4.56,2.69 10.5,1.73 13.25,-1.97 2.6,-3.81 7.25,-15.24 2.82,-18.11 z m 3.08,84.92 c 4.63,2.57 10.34,0.7 12.43,-4.14 0,0 -0.12,-0.38 1.26,-4.12 1.47,-3.69 -1.08,-8.98 -5.68,-11.63 0,0 -39.63,-22.17 -46.88,-26.75 l -5.52,11.07 c -2.33,4.76 -0.48,10.88 4.08,13.53 z m 4.41,41.35 0.22,-7.89 c 0,-5.33 -3.81,-11.77 -8.51,-14.24 l -38.18,-19.85 c -4.82,-2.51 -8.67,-1.88 -8.67,1.33 0,3.27 3.85,13.94 8.67,16.57 0,0 29.2,15.95 46.47,24.08 z m 3.12,26.53 c 4.9,2.13 7.45,1.37 5.72,-1.78 -1.93,-3.14 -9.24,-11.57 -14.08,-14.03 0,0 -43.94,-21.71 -45.89,-21.71 l 5.14,9.28 c 2.57,4.62 8.8,10.25 13.6,12.3 l 35.51,15.94" /></g></svg>
